<?xml version="1.0" encoding="UTF-8"?>
<svg id="Layer_1" data-name="Layer 1" xmlns="http://www.w3.org/2000/svg" xmlns:xlink="http://www.w3.org/1999/xlink" viewBox="0 0 64.3 82.2">
  <defs>
    <linearGradient id="linear-gradient" x1="39.9" y1="1069.94" x2="47.77" y2="1069.94" gradientTransform="translate(0 -1034)" gradientUnits="userSpaceOnUse">
      <stop offset="0" stop-color="#ff3f4b"/>
      <stop offset="1" stop-color="#d00019"/>
    </linearGradient>
    <linearGradient id="linear-gradient-2" x1="48.33" x2="51.25" xlink:href="#linear-gradient"/>
    <linearGradient id="linear-gradient-3" x1="51.12" y1="1070.04" x2="57.11" y2="1070.04" xlink:href="#linear-gradient"/>
    <linearGradient id="linear-gradient-4" x1="57.47" x2="63.95" xlink:href="#linear-gradient"/>
    <linearGradient id="linear-gradient-5" x1="14.8" y1="1088.49" x2="35.14" y2="1088.49" xlink:href="#linear-gradient"/>
    <linearGradient id="linear-gradient-6" x1="30.1" y1="1094.74" x2="50.4" y2="1094.74" xlink:href="#linear-gradient"/>
    <linearGradient id="linear-gradient-7" x1="52.32" y1="1088.64" x2="66.97" y2="1088.64" xlink:href="#linear-gradient"/>
  </defs>
  <g>
    <g>
      <path d="m20,15.19h0l-.1.2s0,.1-.1.1c0,.1-.1.1-.2.1s0,0,0,.1-.2.2-.3.4c-.1,0-.1.1-.2.2s-.1.2-.2.3c-.1.2-.3.3-.5.5-.1,0-.1.1-.1.2-.1.1-.1.2-.3.1q0-.1.1-.3.1,0,.1.1l.3-.3c.1,0,.1-.1,0-.1h-.1q0-.1.1-.1c.1,0,.2,0,.2-.1,0,0,.1-.1,0-.1l.1-.1s.1-.1.1-.2.1-.2.2-.1c0-.1.1-.1,0-.2l-.1.1q-.1-.1-.2-.1c-.1.1,0,.1,0,.2-.1,0-.1.2-.3.1v-.1h0s0,.1-.1.2c0,0-.1.1-.1.2h-.1q0,.1.1.1s0,.1.1.1h-.1v.1c0,.1-.1.1-.1.1-.1,0-.2,0-.2.1-.1.1-.1,0-.2,0v.1s-.1,0-.1.1c.1,0,.1.1.1.1-.1.1-.1.2-.1.3h-.1v-.1c-.1,0-.1.1-.1.2-.1,0-.2.1-.3,0h0c.1,0,.1.1.1.1,0,0-.2.1-.2.2,0,0-.1.1-.1,0h0c0,.1.1.1,0,.2,0,0-.1.1-.2.1h-.2.1q.1,0,.1.1c-.1.1-.2,0-.3,0,0,.1.1.2,0,.2,0,0,.1,0,.1.1-.1.1-.3.1-.4,0,0,.1-.1.2-.2.2h.5c.1-.1.1,0,.2,0s.1-.1.2-.1h0c0-.1.1,0,.2-.1-.1.1-.2.1-.2.2s0,0-.1,0l-.1.1s-.1.1-.2.1-.1.1-.2.1c0,0-.1,0-.1.1-.1,0-.2,0-.3-.1-.1,0-.1.1-.2.1s-.1,0-.1-.1c-.2.1,0,.2-.1.3h-.1q-.1-.1-.2-.2h-.1v.5c0,.1.1.1.1.1v.1c-.1,0-.1.1-.2.1s0,0,.1-.1c.2-.1-.1,0-.1,0q-.1,0-.1-.1c0-.1-.1,0-.1,0q0,.1-.1.2t.1,0c.1,0,.1.1,0,.1s-.1.1-.2.1-.1-.1-.1-.1c-.1,0-.1.1,0,.2l-.1.1c0,.1-.1.2-.3.2q-.1,0-.1.1c-.1.1-.2.1-.2,0h-.1s-.1,0-.1-.1h0q-.1.1-.2,0c-.1,0-.1.1-.1.1,0,0,0,.1-.1.2v.1h-.2q-.1,0-.1-.1c-.1,0-.1.1-.1.2h-.2c-.1,0,0,.1-.1.1.1,0,.2.1.1.2-.4,0-.7,0-1.1.2h.4c.1,0,.2,0,.2.1.1.1,0-.1.1-.1s.1,0,.1-.1c.1-.1.3,0,.4.1,0,0,.1,0,.1.1q.1,0,.1.1h.1c.1,0,.1.1.2.1q0,.1-.1.1c0-.1-.1-.1-.2-.1h-.2c.1.1.2.1.3.2h.2l.1-.1h.1q-.4-.3-.4-.2h.2c-.1,0-.1.1-.2.1h.4c.1.1,0,.1.1.1h.1q0,.1-.1.2c.1,0,.1.1.2,0q.1,0,.2.1h.2c0,.1.1.1.2.2.1,0,.2.1.3.2h0q.1.1.2.1.4.1.4.2.1,0,.1.1s0,.1-.1.1h.3q-.1,0-.1.1c.1,0,.1.1.1.1q.1,0,.1-.1c.1,0,.1.1.1.2h-.2c.1,0,.1.1.1.1q.1,0,0-.1h.1c.1,0,.1.1.2.2h-.1c0,.1-.1.2-.2.2h0c.1.1,0,.2,0,.2,0,.1.1.2.3.2v.3h.2l.1.1q.1.1.1.2s-.1,0-.1.1c0,0,.1,0,.1.1l.1.1v.3h-.1c-.1-.1-.2-.1-.4-.1h-.1c.1,0,.1.1.1.1,0,0,.1,0,.2.1h-.3v.2c-.1,0-.1.1-.2.1h.3q0,.1-.1.1-.1,0-.2.1.1,0,.2.1c0,.1-.1,0-.1.1l.1.1c-.1,0-.1.1-.1.2s-.1.1-.2.1c.1,0,.1.1.1.1-.1,0,0,.1,0,.1h-.1v.1c.1.1,0,0,0,.1h-.1c-.1,0,0,0,0,0,0,0,.1.1,0,.1s0,.1-.1.2v.1s0,.1-.1.2h-.2l.1.1c.1,0-.1,0-.1.1,0,0,0,.1.1.1-.1.1-.1.2-.1.2,0,.1,0-.1.1-.1,0,0,.1,0,.1.1s.1.1.1.1h.1c-.1.1-.2.1-.4.1v.2c.1,0,.1.1.1.1,0,.1-.1,0-.2.1,0,.1,0,.2-.1.3h-.4.7s0,.1-.1.1-.2.1-.3.1-.3,0-.5.1h-.1.2c.1,0,.3,0,.5-.1h.2c0,.1-.1.1-.1.2-.1.1-.1.2-.2.3-.1,0-.1.1-.1.2s0,.1-.1.2c-.1,0-.1.1-.1.2s-.1.3-.1.4c-.1,0,0,.1,0,.1q0,.1-.1.2c-.2.2-.4.5-.5.7,0,.1-.2.2-.1.3,0,0-.1,0-.1-.1h-.1c-.1,0,.1,0,0,0h-.2l.1-.1s-.1-.1-.2,0c.1,0,.1.1.1.1-.1,0-.3,0-.4.1h.3c0,.1-.1.1-.2.1s-.1.1-.2,0c-.1,0-.1.1-.2.1h.2c-.1.1-.1.2.1.2-.1,0-.1.1-.1.1-.1.1.1.1.1.1-.1,0-.1.1-.2.1s-.1.1-.1.1c.1.1,0,.1-.1.2l-.1.2v.2c-.1,0-.1.1-.2,0-.1.1-.1.2-.2.3.1,0,.1.1.1,0h.1c.1,0,.1.1.1.1h0q-.1,0-.1-.1c0,.1.1.1.1.1-.1,0,0,.1-.1.1q.1.1,0,.2h-.3c.1.1.2-.1.2.1,0,.1,0,.2-.1.2,0,0-.1,0,0,.1-.1,0-.1.1-.1.2.1.1-.1.2-.2.3.1,0,.1.1.1.1-.1.1-.1.2-.2.2h-.1c0,.1-.1.3-.1.4s-.1.2-.2.2h-.2.2v.2c-.2.1-.3.2-.4.2q.1.1.1.2c0,.1,0,.2-.1.2,0,.1-.1.2-.1.3,0,0,0,.1-.1.1q0,.1-.1.2c-.1,0,0,.1,0,.1-.1,0,0,.1,0,.1-.1,0,0,.2-.1.2,0,.1,0,.2-.1.2v.1c-.1.1-.2.2-.1.4-.1,0-.1.1-.1.2,0,.2-.1.3-.1.5s-.1.3-.1.5v.9c0,.2.1.4.1.5v.6c0,.1,0,.2.1.3v.2c0,.1,0,.2.1.2v.2c.1.1.1.2.1.4.1.1.1.2.1.3v.2c.1.1.1.2.1.4l.1.1c.1.2.1.3.2.5.1.1.2.2.4.2h.1c.2.1.4.1.6.2.1,0,.2.1.4.1h.7c.2,0,.3-.1.4-.2,0-.1.1-.1.2-.2.1-.1.3-.2.4-.3.1,0,.2-.1.3-.2.1-.1.3-.2.5-.2.1,0,.2-.1.3-.2,0-.1.1-.1.1-.2s.1-.1.1-.1c.2-.1.3-.2.4-.3.1-.1.3-.2.4-.4.1-.1.2-.2.2-.2.1-.1.2-.2.2-.4.2-.3.4-.5.5-.7q0-.1.1-.2c.1,0,.1.1.1.1h.1-.1c0-.1.1-.1.2-.2,0,0,.1.1,0,.2l.1.1s0-.1-.1-.1c.1,0,.2-.1.3-.1,0,.1,0,.2-.1.2.1,0,.2.1.4.1,0-.2.1-.2.2-.3.1,0,.1.1.1.1l.1.1.1.1c-.1-.1-.2-.1-.4-.1.1.1.2.2.3.3h.2c0,.1,0,.2-.1.3h0c.1.1,0,.2-.1.2,0,0-.1,0-.1.1-.1.1-.1.2-.1.3-.1.1-.1.2-.2.3s-.1.1,0,0c-.1.1-.2.3-.3.5,0,.1-.1.2-.2.3s-.2.2-.3.4h-.1c-.1.1-.2.2-.4.4-.1.1-.2.1-.3.2h0c0,.1-.1.1-.1.2-.1.1-.2.1-.2.2h0c-.2.1-.4.3-.7.4-.1,0-.1.1-.2.1-.1.1-.2.1-.3.1h-.5c0-.1-.1,0-.1,0-.1-.1,0-.1,0-.2l-.1-.1c.1,0,.3,0,.2-.2q.1,0,.1.1c.1,0,.2-.1.3-.2.1-.1.3-.1.3,0,.1,0,.1-.1.2-.1s.1,0,.1.1c.1,0,.1-.1.1-.1v-.1h-.1v-.1c-.1,0-.1.1-.1-.1-.1.1-.2.1-.3.1,0,0,.1,0,.1.1h-.2q.1-.1.1-.2h.1c.1,0,.2,0,.2-.1-.1,0-.1-.1-.2-.1v.1c-.1,0-.1.1-.1.2q-.1,0-.1.1v.2h-.1s0,.1-.1.1c0,0-.1,0-.1-.1v-.2c-.1,0-.1-.1-.2-.1-.1-.1-.1,0-.2.1,0,0,.1,0,.1.1s0,.1-.1.2c-.1,0-.1.1-.2.1-.1-.1,0-.2-.1-.2s-.1.1-.2,0c-.1.1-.1.2,0,.3s.1.1.2.1c-.1,0-.1.1-.2.1h-.1.1v-.1c-.1,0-.1.1-.2.1,0-.1-.1-.2-.2-.2.1.1.2.1.2.2h-.1q-.1,0,0,.1.1,0,.1-.1h.1-.1.1c-.1.1,0,.1,0,.2q-.1,0-.1-.1-.1-.1-.2,0c-.1,0-.1.1-.1.1h-.2c-.1,0,0,.1-.1.2h.1c-.1.2-.3,0-.4.1h.4c.1,0,.1-.1.2-.1q.2,0,.3.1-.1,0-.1.1c-.1,0-.1-.1-.1-.1h-.2c-.1,0,0,0,0,.1h-.2s.1,0,0-.1h-.1v.2c-.1,0-.1-.1-.2,0q0,.1.1.2h.3c-.1.1-.3.1-.4,0-.1,0-.1-.1-.1-.1l.1.1c.5.3.4.3.4.3-.1,0,0,.1,0,.1.1,0,.1-.1.2-.1s0,0-.1,0c0,.1-.2.1-.2.2s-.2.1-.3.1c-.2,0-.5.1-.7,0h-.7c-.1-.1-.2-.1-.3,0h-.4c-.1,0-.2,0-.4-.1-.1,0-.1-.1-.1-.1q-.1,0-.1-.1c-.2,0-.3,0-.4-.1s-.2-.1-.4-.1c-.2-.1-.4-.1-.5-.3l-.1-.1c-.2-.2-.4-.3-.5-.5-.2-.2-.4-.5-.5-.7q-.1-.1-.1-.2c-.1-.2-.1-.3-.2-.5,0-.2-.1-.4-.1-.6-.1-.2-.2-.5-.3-.7q-.1-.1-.1-.2v-.2s0-.1-.1-.1-.1-.1-.1-.2c-.1-.1-.1-.3-.1-.5v-.7c0-.1-.1-.2-.1-.3-.1,0-.1-.1-.1-.1v-.2q0-.2-.1-.4s0-.1.1-.1c.1-.1.2-.2.2-.3q.1,0,.1-.1-.1-.1-.2-.2h-.2c0-.1.1-.2.1-.2,0,0,0-.1,0,0-.1-.1,0-.1.1-.1l.1.1q.1,0,.1-.1c-.1,0-.1-.1,0-.2v-.1q0-.1.2-.1h.1c-.1,0-.1-.1-.2-.1.1-.1,0-.2.1-.3h.1c-.1,0-.1-.1-.1-.1h-.1v-.2c.1.1.1.2.3.2.1,0-.1-.1-.1-.1v-.2h0c.1,0,.1-.1.2-.2-.1,0-.1-.1-.1-.1v-.2h.2v-.2c-.1,0-.1-.1,0-.1h.2s.1,0,0-.1l-.1-.1h-.1v-.1q.1,0,.1-.1h-.1c0-.2,0-.3,0-.3,0,0,0-.1.1-.1s.1-.1.1-.2c0,0,0-.1-.1-.1.1,0,0-.1.1-.2h.1-.1c-.1,0-.1-.1,0-.1s0-.1,0-.2.1-.1.1-.2c.1-.1,0,0,0-.1v-.1q.1,0,.1-.1c-.1-.1,0-.2,0-.3,0-.2.1-.3.2-.5,0-.2.2-.4.3-.6,0,.2.1.1.1-.1,0-.1,0-.2.1-.2s.1-.1.1-.2v-.2c.1-.1.1-.3.1-.4s.1-.2.1-.2c0-.1.1-.2.1-.3s.1-.2.1-.3.1-.4.1-.5.1-.2.1-.3.1-.3.1-.4.1-.2.1-.4c0,0,.1,0,.1-.1.1,0,.3,0,.5-.1.1,0,.2,0,.1,0-.2,0-.4.1-.7,0q0-.1.1-.1h.4c-.1-.1-.2-.1-.4,0,0,0-.1,0-.1-.1.1-.1.1-.2.1-.4.1-.1.2-.2.2-.4,0-.1.1-.2.1-.2,0-.1.1-.2.1-.2h0c.1-.1,0-.1.1-.2.1,0,0-.1,0-.1.1,0,0-.1,0-.1.1,0,0-.1,0-.1q0-.1.1-.3c0-.1.1-.2.1-.3h.2s-.1,0-.1-.1h-.1c0-.1.1-.2.1-.4.1-.1,0-.3.2-.4-.1,0-.1-.1,0-.2.1,0,.1-.1.1-.2s.1-.2.1-.3c0,0,.1,0,0-.1v-.3h.1c-.1-.1,0-.2,0-.3h0s-.1-.1,0-.1v-.4c0-.2,0-.3-.1-.5-.1,0-.1-.1-.1-.2-.1-.1-.2-.2-.4-.3h-.3c-.3,0-.6,0-.8-.1h-.2v-.1c-.1,0-.1-.1-.1-.1q-.1,0-.1.1c-.1,0-.1-.1-.1-.1h-.3v.1c-.1,0-.1-.1-.2,0h-.1c-.1,0-.2,0-.2.1h-.2s0,.1-.1.2h-.1q-.1.1,0,.2-.2-.1-.4-.1-.1,0,0,.1h-.3c.1,0,.2,0,.1.1-.1,0-.1-.1-.2,0h-.2q.1,0,.2.1c-.1,0-.1.1,0,.2,0,0,0,.1-.1.1q-.1.1-.1.2h-.1c.1.1.1,0,.2,0-.1,0-.1.1-.2.1s-.1-.1-.2-.1-.2,0-.3.1v.1h.1l.1.1c-.1,0-.1.1-.2.1l-.1-.1v.1h-.1c-.1,0-.1.1-.2.1-.2-.1-.2.1-.3.1l.1.1h.1v-.1c.1,0,.1-.1.2-.1v.2h.2l-.1.1s0,.1.1.1c-.1,0-.1.1-.2.1l-.1-.1c-.1,0-.1.1-.2.1l.1.1c.1,0,0-.1.1-.1,0,0,.1.1.1.2,0,.2-.1,0-.1,0-.1,0,0,.1-.1.1h-.1c-.1,0-.1.1-.1.1,0,0,0-.1-.1-.1s-.1-.1-.2,0h.1q-.1,0-.1.1l.1.1q.1,0,.1-.1h.1-.1c-.1,0-.1.1-.1.2.1.1.1,0,.2-.1l-.2.2h-.2v.1h.2c0,.1-.1.2-.2.2h-.1c-.1,0-.1.1-.1.2.1.1.1,0,0-.1q.1-.1.2,0l.1.1q-.1,0-.1.1h-.2q0,.1-.1.2c.1,0,.1.1.1.1-.2.1-.1.2-.2.3.1,0,.2,0,.3-.1q.1,0,.2.1c-.1,0-.3.1-.4.1v.1c-.1,0-.1-.1-.2-.1h0s.1.1,0,.1h.2q.1.1,0,.1s-.1,0-.1.1.1.1.2.1v.1c-.2,0-.3-.1-.5-.2q.1.1.1.2c.1,0,.2,0,.2.1-.1,0-.1.1-.3.1-.1,0-.2-.1-.3-.1,0,0-.1.1-.1.2,0,0,.1,0,.1-.1.2,0,.1.1,0,.2h.2v.1c-.1,0-.2.1-.3,0l.1-.1h-.2q.1.1,0,.1c.1.1.2,0,.3,0,0,0,0,.1.1.1,0,0,.1-.1.2-.1q0,.1-.1.1s.1,0,.2.1c.1,0,0,0-.1,0,0,.1-.1.1-.2.2h.2c-.3.8-.5.8-.7.8,0,0,.1,0,.1.1h0s.1,0,.1.1q.1.1.1,0c0-.1.1-.1.1,0,0,0,.1,0,.1.1v.1s-.1,0-.1.1h-.1c0,.1.1,0,.1,0v.1s.1,0,.2.1h-.2c-.1,0,0,.1,0,.1,0,0-.1.1-.2.1,0,0-.1.1-.2.1.1,0,.1.1.1.1-.1,0-.2.1-.3.1l-.1-.1s0,.1-.1.1h.4l.1.1c-.1.1-.3,0-.5.1h.4q0,.1-.1.1h.4-.5s0,.1-.1.2h.2s.1.1.2,0h.1s0,.1-.1.2c0,0-.1,0-.1-.1h0c0,.1-.1.2-.2.2,0,0,0,.1-.1.2.1.1.2.1.1.2h-.2.1c0-.1-.1-.1-.2-.1l.1.1s-.1.1-.2.1c0,0,0,.1-.1.2q.1,0,.1-.1,0-.1.1-.1h.1-.1c.1.1.1.2.1.3-.1,0-.2,0-.2.1-.1.1,0,0,.1,0h0v.2h-.1c-.1-.1,0,.1,0,.1.1,0,.1-.1.2,0,0,0-.1.1-.2.1q.1,0,.2.1h-.2c.1,0,.1.1.1.1h.3s.1,0,.1.1v.1c-.1,0-.1.1-.1.2v.2q-.2,0-.3-.1c-.3,0-.3.1-.5.1,0,.2-.1.2-.3.2q.1.1.2.1h.2v.1h-.2s-.1,0,0,0h-.1c.1.1.1.2.2.2h-.3l.1.1c0,.1-.1.1-.2.2,0,0,.1,0,.1.1,0,0,0-.1.1-.1h.1c0-.1,0-.2.1-.2.1-.1.1,0,.1.1h-.1.3s-.1.1-.2.1c0,.1.1.1.1.2-.1,0-.2,0-.3.2,0,0-.1,0-.1.1-.1,0,0-.1-.1-.1h-.3c-.4-.1-.4,0-.4,0l.1.1.1.1h.4l-.1.1s-.1,0-.1.1-.1.1-.2.1h-.2q-.1-.1-.2-.2v-.2c0-.2-.1-.3-.1-.4-.1-.2-.1-.4-.1-.5.1,0,.1-.1.1-.1,0,0,0-.1-.1-.1,0,0-.1,0,0,.1h-.1c0-.1,0-.2-.1-.4v-.6q0-.1.1-.2c0-.1,0-.2-.1-.4.1-.3.1-.7.2-1v-.3c0-.1.1-.1.2-.1h.4c-.1-.1-.3,0-.5,0,0,0,.1,0,0-.1h.1c-.1-.2,0-.5.1-.7v-.2c0-.1.1-.3.1-.5v-1.1c.1-.3.1-.5.1-.8,0-.2.1-.4.2-.6,0-.1.1-.2.1-.3s.1-.3.1-.5.1-.3.1-.4,0-.2.1-.3c0-.3.1-.5.1-.8h-.1c0-.1.1-.2.1-.2q-.1,0-.1-.1h0c-.1.1-.2.1-.3,0q-.1,0-.1.1,0,.1-.1.2c-.1-.1-.1-.2.1-.2,0,0,.1-.1.1-.2-.1,0,0-.1,0-.1v-.1q0-.1.1-.2l.1-.1.1-.1c0-.1.1-.1.1-.2.1-.3.2-.3.2-.5,0,0,.1-.1.1-.2s.1-.3.1-.5c0-.1.1-.2.1-.4.1-.2.1-.3.1-.5s.1-.4.2-.6c.1-.2.1-.5.2-.7,0-.1.1-.2.1-.3v-.1q.1.1,0,0c.1-.1.1-.2.2-.2,0-.1.1-.2.1-.3s.1-.2.1-.2q0-.1.1-.2c.1-.1.1-.3.2-.4,0-.1.1-.2.1-.2v-.1c0-.1.1-.2.1-.4v-.1c.1-.2.1-.4.2-.6-.1-.3,0-.4,0-.7h.1c.1-.1.1-.2.1-.3s0-.2.1-.3c.1-.1.1-.3.1-.4.1-.2.2-.4.2-.5.1-.2.1-.4.2-.5v-.1c-.1,0-.1-.1,0-.1s.1-.1,0-.1q-.1.1-.2.1h-.2c-.1.1-.1,0-.1,0-.1,0-.2.1-.2.1h0c-.1.1-.3.1-.4.2h-.1c-.2-.1-.4.1-.6.2-.2.1-.4.1-.5,0s-.2-.1-.4-.1h-.1c-.1-.1-.2,0-.3-.1-.1.1-.2,0-.3.1l.1.1s-.1.1-.1,0c-.1,0-.1-.1-.2-.1,0,0-.1,0-.1-.1v-.1q0-.1.1-.1c.2-.2.4-.4.6-.6.2-.2.6-.5.8-.8.1-.1.3-.2.4-.3.3-.3.7-.6,1-.8.2-.1.4-.3.5-.4.2-.1.3-.2.5-.3s.4-.2.6-.3c.3-.1.5-.2.8-.4.2-.1.4-.2.7-.3.1,0,.1-.1.2-.1h.2q.1,0,.2-.1c.1-.1.2,0,.3-.1.2,0,.4-.1.7-.1.1-.1.3-.1.5-.2.1,0,.2-.1.3,0,.3,0,.6-.1.9-.1h2.4c.3,0,.5.1.8.1.1,0,.3.1.5.1.1,0,.1.1.1.1l-.1.1h.1c.1,0,.1.1.1.1.1,0,.1.1.2.1l.1-.1-.1-.1c-.1,0-.1-.1-.2-.1.1,0,.1-.1.1-.1.2.1.4.1.6.2,0,0,0,.1-.1.1h.1v.1h.3v-.1q.1,0,.2.1c-.1.1-.1.2.1.2v-.1h.1v.1c.1.1.2.2.3.2q0-.1.1-.2c.1,0,.1.1.1.1.1,0,.1.1.1.1q.1-.1.1-.2.1,0,.1.1c0,.1.1.1,0,.2,0,0,0,.1.1.1h-.1q-.1-.1-.1-.2h-.2s0-.1-.1-.1h-.3l-.1.1s-.1,0-.1-.1.1,0,.2-.1l-.1-.1h-.2q-.1,0-.1.1v.1q-.1,0-.1-.1c0-.1-.1,0-.1,0,0,.1-.1.2-.2.2,0,0,.1.1.1,0,.1,0,.1-.1.2,0v-.1c.2,0,.3.2.4.3.1.1.1,0,0-.1.1.1.2.1.2.3.1.1.3,0,.4,0v.1h.2q0-.1.1-.1c.1,0,.1-.1.1,0,0,0,.1,0,.1.1,0-.1,0-.2.2-.2,0-.1.1,0,.1.1,0,0,0,.1-.1.1s0,.1-.1.1c.2-.1.4-.1.5.1,0,.1-.1.1-.1.2h0c-.1,0,0,.1-.1.1l.1-.1h.1q.1-.1.2.1c0,.1.1.1.1.1q.1,0,.2.1h.1c.1.1.3.2.4.3v.1q.1,0,.2-.1c.1,0,.1.1.2.1,0,0,.1,0,.1.1q.1.1.1.2s.1,0,.2-.1h0c.1,0,.1.1.1.2l-.1-.1h0v.2q0,.1-.1.2l-.1.1c0,.1,0,.2.2.2,0,0,.1,0,0,.1h0l.1.1c0,.1-.1.1-.2.1s-.1-.1-.2-.1l-.1-.1q-.1-.1-.3-.1l-.1-.1q0-.1-.2-.1-.1,0-.2.1s-.1,0-.1.1c.1,0,.1.1.2.1s.2,0,.3.1c.1.1,0,.1,0,.1,0-.1.1-.1.1-.1,0,.1-.1.1-.2.1l.1.1v.1c0,.1.1.1.2.1l.1-.1c-.1,0-.1-.1-.1-.1h.1s.1,0,0,0c0,.1,0,.2-.1.3v.1h-.3v.1c0,.1-.1.1-.1.1h0c-.1,0,0-.1-.1-.1,0,0-.1,0-.1.1v.1l.1.1c0,.1-.1.1-.1.1.1.1.2.1.2.2.1.1.2,0,.3-.1,0,0-.1,0-.1-.1v-.1c.1-.1.2-.1.3,0,.1,0,0,.1-.2.1.1,0,.1.1.1.1,0-.1.1-.1.2-.1,0,0,.1,0,.1.1,0,0,0-.1.1-.1h-.2q.1-.1.2-.1.1,0,.1.1.1.1,0,.1-.1.1-.2.2c0,.1-.1.1-.1.1,0,0-.1.1-.2.1s-.1.1-.2.1h-.1q0,.1-.2.1c.1.1.1.2.1.2h.3c0,.1-.1.1-.1.1,0,.1.1,0,.1.1v.2c-.1.1-.2,0-.2.1h-.1c.1.1.1,0,.1,0h.1c.1-.1.2-.1.3-.1v.2h0c-.1,0-.2,0-.4.1h-.1c0-.1,0,.1,0,.1h.1c.2,0,.5-.1.7-.1q.1,0,.1.1l.1-.1h.1c0-.1.1-.1.2-.1.4-.9.5-.9.5-.9h0ZM1.4,34.59s-.1,0-.2.1c.1.1.2.1.3.1h.1v-.1c-.1,0-.2-.1-.2-.1h0Zm.5-10.3h-.1c-.1,0-.2.1-.3.1.1,0,.1.1.1.1.1-.1.2-.2.3-.2Zm-.1,9.6c-.1,0-.1-.1-.1-.1,0,0,0,.1-.1.1q.1.1.2,0h0Zm.3-.2h-.3.3Zm-.1-9.7q-.1,0,0,0-.1,0,0,0Zm.4,9.3s-.2,0-.4.1h.3s.1,0,.1-.1Zm-.1-.9h0c-.1,0,0,0,0,0Zm.1,1.5h0q0,.1,0,0h0Zm.1-2.1s0-.1,0,0c0,0-.1,0,0,0Zm0-.4l.1.1s0-.1-.1-.1Zm0,2q.1,0,.2.1c-.1,0,.1-.1,0-.2q-.1.1-.2.1Zm.2,1.3s-.1.1,0,0h0Zm.4-5.5h-.1v.1l.1-.1h0Zm.3,1.6c0,.1-.1.1-.2.1,0-.1.1,0,.2-.1Zm-.2-.7h0q.1.1.1,0h-.1Zm.7-.1h-.2.2Zm0-.3c.1,0,.1.1.1.1h-.1q-.1,0,0-.1Zm.1-1.7c0-.1-.1-.1-.1-.2-.1.1,0,.2.1.2-.1.1,0,.1,0,0Zm0-16.3q-.1,0,0,0c0,.1,0,0,0,0Zm.2,16.3q.1.1,0,0v.1-.1h0Zm.2-.3h0Zm.5-2.2h-.1.1Zm.1-.5h-.2c.1.1.2.1.2,0Zm0-.2c-.1,0-.1.1-.1.2q.1-.1.1-.2Zm-.1-2.2h0q0,.1,0,0,.1.1,0,0h0Zm.2-11.6s.1-.1.2-.1q-.2,0-.2.1Zm.2,14.9c-.1,0-.1-.1-.1-.1q.1,0,.1.1Zm.3-1.2c-.1,0-.1-.1-.1-.1-.1.1-.2.1-.2.2.1,0,.2-.1.3-.1Zm-.1-2.1h-.1c0,.1.1,0,.1,0h0Zm0,.6l-.1-.1q0,.1.1.1Zm0,2.4h0c0-.1,0,0,0,0Zm.3-4.3h0q.1.1,0,0Zm.2,3.7h0q0-.1,0,0Zm-.1-4.2h.2-.2c0-.1.1,0,0,0h0Zm.3.2c-.1,0-.1.1-.2.1s-.1.1,0,.1c.1-.1.2-.1.2-.2h0Zm-.2,1.9h0q0,.1,0,0Zm10.1-9.6c0-.1-.1-.2-.1-.4h0c.1,0,.2,0,.1-.1h-.1c-.1-.1.2-.1.1-.2h-.1s0-.1-.1-.1q-.1.1-.1,0c0-.1-.1-.1-.2-.1s-.1-.1-.2-.1c-.2-.1-.4-.2-.7-.2h-.3c-.5-.1-1-.2-1.6-.2h-.3q-.1,0-.1-.1c-.1.1-.2.1-.3,0,.1-.1,0-.1,0-.1h-.2c0,.1-.1.1-.2.1q-.1-.1-.2,0c-.1-.1-.2,0-.3,0s-.1,0,0-.1h-.1v.1c-.2-.1-.5-.2-.7.1h-.1c-.1,0-.2,0-.4.1q-.1,0-.2.1l-.1.1c-.1.1-.2,0-.3.1l-.1.1q-.2-.2-.2-.3c-.2.1-.4,0-.5.2h-.1l-.1.1c-.1,0-.1.1-.2.1-.1.1-.1.2-.1.3,0,.2-.1.4-.1.5v.7c-.1,0,0,0,0,.1.1,0,.1.1,0,.2-.1.1-.1.2-.1.4v.4s0,.1-.1.1v-.2c.1-.1,0-.1,0-.2h-.1q0,.1-.1.2l-.1.1c-.1,0-.1-.1-.1-.1-.1.1,0,.2-.1.3h-.1v.1c0,.1-.1.2,0,.3v.1l-.1.1c0,.1-.1.3-.1.5,0,0,0,.1.1.1s.1.1,0,.1v.1c.1,0,0,.1,0,.2v.1c0,.1,0,.3.1.5,0,.1,0,.2-.1.4h-.1.2c-.1,0-.1.1-.1.1,0,.1.1.2-.1.2q-.1,0,0,.1h.1q0,.1-.1.2s.1,0,.1.1c0,0-.1.1-.2.1,0,.1-.1,0-.1,0q0,.1-.1.2h.2l-.1-.1h.2c0,.1.1.2-.1.4l-.1-.1c0-.1,0,.1-.1.1h.1c.1,0,.1.1.1.2s0,.2-.1.3q0,.1-.1.2c-.1-.1,0-.2,0-.3q-.1,0-.1.1c-.1,0,0,.1-.1.1s-.1-.1,0-.1v-.1h.2c0-.1-.1-.1-.1-.2h.1s0,.1.1.1h-.2c-.1,0,0,.1,0,.2.1,0,0,.1.1.2h-.1l-.1-.1s0,.1,0,.1c.1-.1.2-.1.2,0,.1.1-.1.1-.2.1h.4c-.1.1-.2.1-.3.2q.1.1.1.2c0,.1-.1,0,0,.1s-.1.2-.1.4c0,0-.1,0-.1.1q0-.1-.1-.2h.2c-.1-.1-.2-.2-.3-.1v-.1c-.1,0-.1.2-.1.2.1,0,0,0,0,.1-.1,0,0,0,0,0h.1v.1q.1.1.2.1h.1s-.1.1,0,.1.2-.1.3-.1c.2-.2.4-.4.6-.4.2-.1.3-.1.5-.2.2-.1.4-.2.6-.3.4-.2.7-.4,1-.5s.5-.3.7-.4c.1,0,.1-.1.2-.1.1-.1.3-.1.4-.2.1-.1.2-.1.3-.2.3-.2.7-.5,1-.7.3-.1.5-.3.8-.5.2-.1.3-.3.5-.4s.4-.3.6-.5q.1,0,.1-.1c.1-.1.2-.2.3-.3.1-.1.2-.2.3-.2,0-.1.1-.1.1-.2.1-.1.2-.2.4-.3.1-.2.2-.3.3-.4q.1-.1.1-.2c.1-.1.2-.2.3-.4.1-.1.2-.3.4-.4,0-.1.1-.1.1-.2-.2-.3-.2-.5-.3-.7h0Zm-10.1,11.5s0-.1.2-.1c0,0-.1.1-.2.1Zm.1-4.5h.2s-.1,0-.2,0c.1,0,0,0,0,0h0Zm.6,2.1s-.1,0,0,0q-.1-.1-.2-.1c-.1,0,0,.1,0,.1-.1,0,0,.1,0,.1h.1-.1c-.1,0-.1-.1-.1-.1q0-.1-.2-.1.1,0,.1.1v.1q0,.1.2.2v-.1c.1,0,.2,0,.2-.2q0,.1,0,0h0Zm-.1,2h0q-.1,0,0,0c-.1-.1,0,0,0,0Zm-.1,14c-.1-.1,0-.2,0-.2.1,0,.2.1,0,.2Zm.3-14.3s0,.1,0,0q.1.1,0,.1l-.1.1q-.1,0-.1-.1h.1s0,0,.1-.1h0Zm.3-1.8q-.1-.1,0,0h-.3s.1,0,.1-.1v-.1c-.1.1-.2.2-.2.3.1,0,.1-.1.2-.1.1,0,.1.1.1.2,0,0,.1-.1.1-.2h0Zm.1-.4h-.4c.1,0,.1.1.2.1,0,0,.1-.1.2-.1Zm-.3,2.1h0s0,.1,0,0h0Zm0,.1s.1,0,0,0c.1,0,.1.1,0,0q.1.1,0,0h0Zm.2-.4s-.1.1,0,.2c0,0-.1,0-.1.1q0-.2.1-.3Zm.2-7.8c-.1,0-.1-.1,0,0q-.1-.1,0-.1c0-.1,0,0,0,.1h0Zm0,8.1h0c0-.1-.1-.1-.1-.2.1,0,.1.1.2.1q.1.1-.1.1c.1,0,0,0,0,0Zm.1-1.6q-.1,0,0,0c-.2.1-.1.1,0,0h0Zm.1-.6h-.2c.1.1.2.1.2,0Zm-.1-7.4s0,.1,0,0c.3,0,.1-.1.1-.1h0s-.1,0-.1.1h0Zm.1.1v.1h.1s0,0-.1-.1c0,0,0,.1,0,0h0Zm0-.5h0c.1,0,0,0,0,0h0Zm.1,9.6h0Zm.2-8.1c-.1,0-.2-.1-.2-.1q0-.1.1-.2l.1-.1c-.1.2,0,.3,0,.4Zm0,6.3h-.1c0,.1.1,0,.1,0h0Zm.1,1.9h0s-.1,0,0,0h0Zm.2-1.9h-.2.2Zm.1.3l-.2.2h.1c.1-.1.2-.1.1-.2Zm0-.5h0Zm.8,10.5s-.1,0-.1-.1c0,.1,0,.2.1.1Zm0-.4s-.1-.1-.1,0h.1Zm0-10c-.1-.1-.1,0-.1.1,0-.1.1-.1.1-.1Zm.3-11c-.1,0-.1-.1-.1-.1l.1-.1h-.2v.1q0,.1.2.1h0Zm.3,1h0q0-.1,0,0Zm.3,9.8h-.2c.1.1.2.1.2,0Zm0,8.8q-.1,0-.1-.1s-.1,0,0,.1h.1c-.1.1-.1,0,0,0h0Zm-.1-.7h-.1.1Zm.2-8.7h0c-.1,0-.1.1-.1.1q.1,0,.1-.1Zm1,.5c-.1-.1-.3,0-.4,0s-.3,0-.5.1c.1.1.2,0,.3,0h.2c0-.1.1-.1.2-.1.1.1.2.1.2,0h0Zm-.9,6.8c.1.1.1,0,.2,0h-.2c0-.1,0,0,0,0h0Zm.2.2c-.1.1-.2.1-.2.2q.1,0,.1.1c.1,0,0-.1.1-.2h-.1c0-.1.2,0,.1-.1Zm.1-.7s-.1,0-.2.1c.1,0,.1-.1.2-.1s.1,0,0,0h0Zm.1-.2c0-.1-.1-.1-.1-.1h-.1s0,.1.1.1h.1Zm.1,10.6h-.3c.1.1.2,0,.3,0h0Zm-.2-10.3s-.1,0,0,0c0,.1,0,0,0,0Zm.1-6.5q0-.1-.1-.1,0,.1.1.1Zm.2,25.2h0c0,.1.1.1.1.1.1,0,.2-.1.3-.1-.2.1-.3.1-.4,0h0Zm.1-20.5h0c.1.1.1,0,0,0h0Zm.1-.1s.1,0,.1-.1c-.1,0-.1.1-.1.1Zm.3,10.7l-.1-.1c-.1,0,0,.1,0,.2q0-.1.1-.1h0Zm-.1-15.5l-.1.1q.1,0,.1.1.1-.1,0-.2Zm0,25.1c.1.1.1,0,.2,0h-.2Zm.3.5c-.1,0-.1-.1-.2,0v.1c0-.1.1-.1.2-.1Zm-.2-.1h.1q0-.1-.1,0Zm.3-25.6c-.1,0-.2,0-.2.1.1,0,.2-.1.2-.1Zm-.1,25.5h.1c.1,0,.2-.1.2,0,.1.1.1,0,.2,0h.2c.1,0,.2,0,.3-.1h-.2c-.1,0-.2.1-.3.1s-.3.1-.3,0q-.1,0-.1.1l-.1-.1c0-.1.1,0,0,0h0Zm0-.3s.1,0,0,0c.1.1.2,0,.2,0q.1,0,.1.1c0-.2-.1-.2-.3-.1Zm.2-18.7c-.1,0-.1.1-.1.1q0-.1.1-.1Zm0,7.5h-.1c0,.1.1.1.1.2,0-.1.1-.2,0-.2Zm0-13.8v-.1h-.1q.1,0,.1.1h0Zm0,6.1q.1.1.2,0c0-.1-.1-.1-.2,0Zm.6,19.4h-.1q-.1,0-.1.1c0,.1-.1.1-.2.1-.2,0,0-.1,0-.1-.1,0,0,.1,0,.1v.1h.1c.1-.1.2-.2.3-.3h0Zm-.5-25.1s.1,0,.1-.1h-.1v.1h0Zm.5,13.3c-.1,0-.2,0-.2-.1-.1-.1-.1.1-.2.1.1,0,.1.1.2.1,0-.1.1-.1.2-.1Zm-.4,11.4h.1c.1-.1,0-.1-.1,0Zm.2-25.2h-.1v.1c0,.1.1,0,.1-.1h0Zm-.1,13.4q0,.1.1.2c.1,0,0-.1.1-.1q-.1-.1-.2-.1h0Zm.1-.5s-.1,0,0,0h0Zm0,.2s0,.1,0,0c.1,0,.2,0,.3.1.1,0,0-.1,0-.1h-.3Zm.1.5h0c.1,0,.1-.1.1-.1t-.1.1Zm.5-1v.2c-.1,0-.1-.1-.1-.1h-.2c.1-.1.2-.2.3-.1Zm-.2,13.1s-.1,0-.1-.1c0,0,0,.1.1.1h0Zm-.1.1c.1,0,.1.1.1.1q0-.1-.1-.1Zm.1-.8h.1q0-.1-.1,0h0c.1-.1,0-.1,0,0h0Zm.3-12.6h-.1.1Zm0-13h0q-.1.1,0,.1v-.1Zm0,26.2s.1,0,.1-.1c-.1,0-.1-.1-.2-.1l.1.2Zm0-.9c.1,0,.1.1.2.1.2-.1.3-.2.4-.2-.1-.1-.1,0-.2,0-.1.1-.1,0-.2,0s-.1,0-.2.1c0-.1,0,0,0,0h0Zm.4-13.4l-.1.1h-.1c0-.1.1-.1.2-.1h0Zm.2,14q-.1-.1-.2,0h0c-.1,0-.1-.1-.2,0v.2c0-.1.1-.1.2-.2h.2Zm-.3-.3s.1-.1,0-.1c0,0,0,.1,0,.1Zm.2.1h.3c-.2-.1-.3-.1-.3,0Zm.2-13.8s-.1,0-.1.1c0-.1.1-.1.1-.1Zm0-.5h.1c0-.1-.1-.1-.1,0Zm.1,14c-.1-.1.1-.1,0-.2.1,0,.2-.1.3-.1v-.1h-.3q-.1.1-.1.2h0q0,.2.1.2h0Zm0-35.1h.4q.1,0,.2-.1c-.1.1-.1,0-.1-.1h-.1s-.1.1,0,.1c-.2.1-.3,0-.4.1,0-.1,0,0,0,0h0Zm.1-.4h0q0,.1,0,0h0c.1,0,0,0,0,0Zm.1,0s.1-.1,0,0v-.2c0,.1-.1.2,0,.2Zm0-.3s0,.1,0,0q.1.1,0,0h0Zm.1,35.6v.1q-.1,0,0,.1c.1,0,.1-.1,0-.1q.1,0,0-.1c.2.1.1.1,0,0h0Zm.2.9h-.1s0-.1.1-.1q.1,0,0,.1Zm.1,0q-.1,0-.2.1c-.1,0-.1-.1-.1-.1h.3Zm-.2-.5h.2q-.1,0-.1.1s-.1,0-.1-.1c0,.1,0,0,0,0h0Zm.2-25.9h-.1v.1c.1,0,.1-.1.1-.1h0Zm-.1-10.4q.1-.1,0-.1c0-.1,0,0,0,.1Zm.2,9.1h-.1s.1.1.1,0Zm0,27.4h.2c.1.1.1,0,.2,0s.2-.1.3-.1c-.2.2-.4.2-.7.3h-.1l.1-.1s0,0,0-.1Zm0-35.8s.1,0,.1-.1c0,.1-.1.1-.1.1Zm1,35.6c-.1.1-.6.2-.7.1-.1,0-.1.1-.2.1,0,0-.1,0-.1-.1h.7q.2-.1.3-.1h0Zm-1-35.8c.1,0,.2.1.2.1q.1-.1.1-.2s-.1.1-.3.1c.1-.1.1,0,0,0Zm.1,35.8s0-.1,0,0c.1-.1.2-.1.2,0h-.2Zm0-.1h0Zm.2-27.6v.2c.1-.1.1-.2,0-.2Zm0-7.8h.2q-.1-.1-.2,0Zm.2,8.9h-.2.2Zm-.1,25.9h0c.1.1,0,.1,0,0q0,.1,0,0Zm.2-35.1q.2-.1.2.1s.1,0,.1.1c0-.1.1-.2.1-.2-.1,0-.1-.1-.2-.1l-.1.1q-.2-.1-.1,0Zm0,.7q.1,0,.2.1c0-.2-.1-.2-.2-.1Zm.3,8.5h-.1c-.1-.1,0-.1,0-.1q.1,0,.2-.1,0,.2-.1.2h0Zm-.2-8.7l.1-.1s0,.1-.1.1Zm.1-.9h.1-.1s-.1,0,0,0Zm.1,19.1h.1-.1c.1,0,0,0,0,0h0Zm.1-18.5h.1-.1Zm0,34.5c.1,0,.1.1.1.1,0,0,0-.1.1-.1h-.2Zm0-25.6c.1,0,.1-.1.1-.1q.1.1-.1.1Zm.1-7.9h0c.1.1.1,0,.1,0h-.1Zm0-.6c.1,0,.2,0,.3.1.1-.1,0-.1,0-.1q-.1-.1-.1-.2c-.1.1-.2.1-.2.2h0Zm.1,17.6s0,.1-.1.1c.1,0,0-.1.1-.1Zm0,17.3h-.1s.1.1.1,0h0Zm.3-26.6c-.1,0-.1.1-.2.1s-.1,0-.1-.1h.3c-.1,0,0-.1,0,0h0Zm.1,4.8q0,.1,0,0c0,.1-.1.1-.1.1l.1-.1Zm.1,21.3v-.1c.1,0,0,.1,0,.1Zm.1-20.2s0-.1-.1-.1c0,.1.1.1.1.1Zm.1,1.1c0-.1-.1-.2-.1-.3h.2c0,.1,0,.2-.1.3-.1.1-.1,0-.2,0h0s.1-.1.2,0h0Zm.1-1.5c-.1,0-.1.1-.2.1v-.1c.1-.1.2-.1.2,0Zm-.2-14.2s.1,0,.1.1l-.1-.1Zm.1,15h0v.1-.1h0Zm.1-12.5h0s-.1,0,0,0h0q0,.1,0,0h0Zm0-2c0-.1-.1-.2,0-.3.1.1.1.2.2.3,0-.1,0,0-.2,0h0Zm.3,2h-.1s-.1.1-.2.1c.1.1.2.1.2.2,0-.1.1-.1.1-.1.1,0,.1-.1,0-.2Zm0-2.3h.1c0,.1-.1.1-.1.1,0,0-.1,0,0-.1h0Zm0,32.7c.1,0,.1-.1.2-.1h.2c0-.1-.2-.1,0-.2-.1,0-.2.1-.2.2q-.1,0-.2.1h0Zm.5-32.1v-.1c-.2,0-.2.1-.3.2-.1,0-.1-.1-.1-.1,0,.1.2.1.1.1q-.1.1-.1,0l.1.1c0-.1.1-.1.2-.2,0,0,.1,0,.1,0Zm-.2,32.6c0-.1-.1-.1-.1-.1h0s.1,0,.1.1h0Zm-.1-.2s.1,0,0,0c.1,0,.1-.1,0,0h0Zm.2-26.3s0,.1-.1.1q.1,0,.1-.1Zm.3.6h0s-.1.1,0,.2c-.1.1-.2.1-.3.1,0-.1-.1-.2,0-.4,0,0,0,.1.1.1,0-.1.1-.2.2-.3-.1.2,0,.2,0,.3h0Zm-.4-6s0,.1.1.1c.1-.1,0-.1-.1-.1Zm.1,31.6c0,.2.1.2.3.2h.1c.1,0,0,.1,0,.1v.1c.1.1,0,.2.1.2h-.5l.1.1h.2-.2c.1.1.1,0,.2,0,0,0,.1,0,.1.1.1,0,.1-.1.1-.2s.1-.2.2-.2c0-.1-.1-.1-.1-.1,0,0,0-.1.1-.1-.1-.1-.1-.2.1-.2l-.1-.1s.1,0,0-.1c0,0-.1,0-.1-.1v.2h-.1c-.1,0,.1,0,.1.1-.1,0-.2.1-.3.2-.1,0-.1-.1-.1-.1q-.1-.1-.2-.1c0-.1.1-.1,0,0h0Zm0,.3q-.1,0,0,.1c.1,0,0-.1,0-.1Zm.1-32s0,.1,0,0l.1.1c-.1,0-.1-.1-.1-.1h0Zm0,31.1c.1,0,.1-.1.1-.1-.1-.1-.1.1-.1.1Zm.1.1s0-.1,0,0c-.1,0-.1.1-.1.1h0c.1,0,.1-.1.1-.1Zm-.1-.3s.1-.1,0,0q.1-.1.1-.2l.1.1c.1,0,.2,0,.2-.1v-.1h-.2v-.1q-.1.1-.1.2c-.1,0-.1.1-.1.2h0Zm.2-30.5h-.1q0,.1.1,0h0Zm-.1,31.2s.1-.1.2-.1c-.1,0-.1-.1-.2-.1v.2h0Zm.2-31.4q.1,0,.1.1.1-.1.2-.1c0-.1,0-.2-.2-.2v.1h.1c-.1.1-.2.1-.2,0-.1-.1,0,0-.1,0,.1,0,.1.1.1.1h-.1c0,.1.1.1.1.2v-.2h0Zm-.1,5.7c0-.1.1-.1.2-.1-.1,0-.1.1-.2.1Zm0,.2h0q.1,0,0,0Zm.2-.1s.1-.1.2-.1c0,.1-.2.1-.2.1,0,.1-.1.1-.1.1v-.1h.1Zm-.1-6.8h.1c.1,0,0,0-.1,0q.1-.1,0,0Zm.3,1.3h.2c-.1-.2-.2-.2-.3-.1-.1.1-.2.1-.1.2,0-.1.1-.1.2-.1h0Zm-.2-.8v.1c.1,0,.1-.1.1-.1.1,0,0,0-.1,0h0Zm.4,5.9s.1,0,0,0c0,.1,0,.2-.2.1-.1,0-.2,0-.2-.1h.1c.2,0,.3.1.3,0h0Zm-.3,25.2s-.1,0-.1.1h0c.1,0,.1-.1.1-.1h0Zm.1-29.9c.1,0,.1-.1.2-.1v-.1c-.1-.1-.1.1-.2.1h-.1s.1,0,.1.1Zm.5-.1c-.1,0-.1-.1-.1-.1l.1-.1c-.1,0-.1-.1-.1-.1,0,.1-.1.1-.1.2.1.1,0,.1-.1.1-.1.1-.2.1-.2.1q.1.1.2,0c0-.1.1-.1.1-.1q.1.1.2,0h0Zm-.6,29.3h.1q0-.1-.1,0Zm.1-24.3h0c-.1,0,0,0,0,0Zm.1,24.8l-.1.1h.4c-.1,0-.1-.1-.1-.1-.1-.1-.2-.1-.2,0Zm0-30.9h0c.1.1.1,0,0,0h0Zm.1,5.2h0Zm.2,25.7s-.1.1,0,0q-.1.1-.2.1c0,.1.1.1.2.2v-.3Zm-.2-.6c.1,0,.1.1.2.1q-.1-.1-.1-.2h-.1c.1.1,0,.1,0,.1h0Zm0-26.5h.2-.2Zm.1,27.9h0c0,.1,0,0,0,0Zm.1-.2h-.2q.1.1.2,0h0Zm-.1-26.2s-.1,0,0,0c0-.1.1-.1.1-.2,0,0,.1,0,.2-.1,0,.1-.1.1-.1.2s-.1.1-.2.1h0Zm.2.4c0,.1-.1.1-.2.2,0-.2.1-.2.2-.2Zm-.2,24.9c0,.1.1.1.1.1.1,0,.1-.1.1,0h-.1l.1.1h0v-.2h.1c.1.1-.1,0-.3,0h0Zm.1-30.3h0c.1.1.2.1.2.1h.1s0,.1-.1.1-.1.1-.1.1c0,.1.1.1.1.2h.1c-.1,0-.1-.1-.1-.1,0,0-.1-.1,0-.1,0,0,0-.1.1,0s.1,0,.2,0h.1c0-.1.1-.1.1-.1v-.1c.1,0,.1-.1.2-.1,0,0,0-.1-.1-.1v.1c-.1,0-.2-.1-.4-.1,0,.1.1.1.1.1,0,.1-.1.1-.1.1-.1,0-.1-.1-.1-.1,0,0-.1,0-.1-.1l.1-.1h0s-.1.1-.3.2h0Zm.2,1.8h0c-.1,0-.1.1,0,0-.1.1,0,.1,0,.1-.1,0,0,0,0-.1h0Zm0-1.1l-.2.2c.1-.1.2-.1.3-.1q0-.1-.1-.1h0Zm.1,30.5h-.1v-.1c-.1,0-.1.1-.1.2h.1c0-.1.1,0,.1-.1h0Zm0-.6s-.1.1-.2.1c0,.1.1.1.2,0,.3,0,.1,0,0-.1Zm0,0h-.1.1Zm-.1-30.8q0-.1-.1-.2c.1.1,0,.2.1.2Zm.1,30.3c.1,0,.1.1.1.1,0,.1.1.1.2.1q0-.1.1-.2c-.1,0-.2-.1-.2-.1-.1-.1-.2,0-.2.1h0Zm.2.7s-.1,0-.1.1v.1h.1c-.1-.1,0-.1,0-.2h0Zm-.1-29.6l.1.1h.1v-.2c-.1.1-.2.1-.2.1h0Zm0,28.4v-.1q.1,0,0,.1Zm0-25.2c0-.1.1-.1.2-.1h0c0,.1-.1.1-.2.1h0Zm.2-2.2s.1,0,0,0v-.1c-.1,0,0,.1,0,.1h0Zm0-1.6v.1s-.1,0,0-.1Zm.5-.3c-.1,0-.1-.1-.1-.1-.1,0-.2.1-.2.2.1,0,.2,0,.3-.1Zm-.3,1.3s.1,0,0,0h0c.1,0,0,0,0,0h0Zm.3.8s.1,0,0,0h0Zm.2-.1s-.1,0-.2-.1q.1-.1.2-.1v.2h0Zm-.1.6q.1-.1.2-.1h.1s-.1,0-.1.1h-.2Zm.1,26v.2q-.1-.1,0-.2Zm.2-25.6c-.1.1-.2,0-.3,0v-.1h.1q.2,0,.2.1c0-.1,0-.2,0,0q.1-.1,0,0c.1-.1,0-.1,0,0h0Zm0,.3h-.2.2Zm-.2-1.6c.1-.1.1-.2.3-.2q-.1.2-.3.2Zm.1-.3q.1-.1.2,0h-.2Zm.4-.6q.1.1.2.1l-.1.1v-.1c-.1.1-.2.1-.3.1,0-.1-.1-.1-.1-.1q.1-.1.2-.1c-.1,0,0-.1.1,0h0Zm0-.4c.1,0,.1.1.1.1v.1c-.2-.1-.3-.1-.4-.3.1-.1.1.1.3.1-.1,0,0,0,0,0Zm-.2,1.4c0,.1.1.1,0,.1h-.1s.1,0,.1-.1Zm.2-1.7s-.1.1-.2.1h0v-.1h.2Zm-.1,2.1l-.1.1h0s0-.1.1-.1c-.1,0,0,0,0,0h0Zm-.1-1.1s.1,0,0,0h0q.1.1,0,0h0Zm.7,1c0,.2-.1.3-.2.3v.1q-.1-.1-.2-.1v.1c-.1-.1-.2-.1-.1-.2q.1-.1.2-.1h.1c0-.1,0-.2.2-.1Zm-.6.9q0-.1.1-.1s0,.1-.1.1Zm.3-.4c.1,0,.1.1,0,.1,0,0,0,.1-.1.1,0,0-.1,0-.1-.1s.1-.1.1,0,0-.1.1-.1h0Zm-.2-1.9h0c.1,0,0,0,0,0h0Zm.6.2c-.1-.1-.2-.2-.2-.2,0,0-.1-.1-.2-.1v-.3h.1v.1c0,.1.1.1.1.2.1.1.2.1.2.2v.1c.1.1,0,.1,0,0,0,.1,0,0,0,0Zm-.4,1.1v-.1c.1-.1.1,0,0,.1Zm.2.8c-.1,0-.1-.1-.2-.1.2-.1.3,0,.2.1Zm.2-.8c-.1,0-.1-.1,0-.1v.1Zm0-.6h.2-.2Zm.2.6q0,.1-.1.2-.1,0-.1-.1c0-.1.1-.1.2-.1Zm0-.3s-.1,0,0,0q-.1.1-.1.2h-.1l-.1-.1v-.1c0-.1.1-.1.2-.1.1-.1,0,0,.1.1h0Zm-.2-.4q0-.1.1-.2s0,.1-.1.2c.1,0,0,0,0,0Zm.1-.3h0Z"/>
      <path d="m36.3,15.09v.5s0,.1.1.1.1.1.1.1v.3c0,.1,0,.2.1.3h0c0,.2.1.4,0,.6-.1.1-.1.2,0,0v.4s0,.1-.1.1c0,.1-.1.2-.1.4.1.1,0,.1,0,.2v.1s.1,0,0,.1c0,.2-.1.4-.2.5,0,.1-.1.2-.2.4,0,.1-.1.2,0,.3l.1.1v.3c0,.1-.1.2-.1.4,0,.1-.1.3-.1.4s-.1.3-.1.5v.3c0,.1-.1.2-.1.3s-.1.3-.1.4c-.1.2-.2.4-.2.5-.1.2-.1.3-.1.5v.1s0,.1.1.1h.1v.1c0,.1,0,.2-.1.3-.1.1-.1.2,0,.3,0,.1.1.1.1.1.1.1,0,.2-.1.3h0q0,.1.1.1h0v.4h0c-.1.1,0,.2-.2.4h0v.1c.1.1,0,.2,0,.2h0c0,.1-.1.2-.1.2v.1c.1,0,0,.1,0,.1,0,0-.1.1,0,.1s0,.1,0,.1q0,.1-.1.1c0,.2,0,.4-.1.5h0v.1c-.1,0-.1.1-.2.2v.7c0,.1.1.1.1.1q.1.1,0,.2v.1c0,.1-.1.2-.1.2,0,0,0,.1-.1.1,0,.1-.2.1-.3,0h-.1c-.1,0-.1.1-.1.2h-.1v.1c.1.1.2.1.3,0h0c0,.1-.1.2-.1.3h0c-.1.1-.2.3-.2.5,0,.1-.1.1-.2.1s-.2.1-.1.2c.1.1,0,.3,0,.5,0,0-.1,0-.1.1h-.1v.2c-.1,0-.1.1-.1.2s0,.1-.1.2c0,.1,0,0-.1-.1,0-.1,0,0,0,0,0,0,0,.1-.1.1q-.1.1-.2.2v.1q0,.1-.1,0h0s0,.1,0,0c0,0,.1,0,.1.1s-.1,0-.1.1c-.1,0-.1-.1-.1-.1-.1,0-.1-.1-.1-.1h-.1l-.1.1v.1h0c-.1,0-.1.2-.2.2v.4s-.1.1-.1.2c0,0-.1,0-.1.1-.1.1-.2.1-.2.2v.2s-.1,0-.1.1c-.1,0-.1-.1-.1-.1v-.1l-.1-.1v.1c0,.1,0,.2-.1.2l-.1.1c0,.1-.1.2-.2.2h0s-.1,0-.2.1h0c-.9.3-1,.4-1,.4h0c0,.1,0,.2-.1.3-.1,0-.1-.1-.1-.1,0-.1,0-.2-.1-.1-.1,0-.1.1-.2.1v.3c-.1.1-.1.2-.2.3h0c-.1,0-.2.1-.2.2,0,.2-.1.3-.3.3-.1,0-.1.1-.2.1-.1.1-.3.1-.4.2h-.1c-.1,0-.3,0-.4.1s-.2.1-.3.1h-.1c-.1.1-.2.1-.4.2-.1.1-.3.1-.4.2h-.1s-.1,0-.1.1-.1,0-.1,0c0,0-.1,0-.1.1-.2.1-.3.1-.5.1-.1,0-.2.1-.4.2-.1,0-.3.1-.5.1h-.3c-.2.1-.4.1-.6.1h-.1c-.2.1-.4.1-.6.2-.1,0-.2.1-.3.1h-.1c-.1,0-.3,0-.4.1-.1,0-.2.1-.3.1s-.2.1-.2.1h-.1c-.1,0-.2.1-.3.2q-.1.1-.1,0c-.1.1-.3.1-.5.2-.2.1-.4.1-.6.2h-1c-.1.1-.2,0-.4-.1,0-.1-.1-.2-.1-.2-.1,0-.1-.1-.1-.1v-.1c0-.1.1-.2.1-.3s.1-.1.2-.2c.1,0,.2-.1.3-.2.1-.1.2-.2.2-.2v-.2s0-.1-.1-.1c0-.1-.1-.2-.1-.2q0-.1.1-.2c.1,0,.3-.1.5-.1,0,0,.1,0,.1-.1h-.1c-.1-.1-.3-.2-.5-.2-.2-.1-.4-.2-.6-.3-.2-.2-.3-.3-.4-.5-.1-.1-.1-.3-.1-.4,0-.2-.1-.3-.1-.5-.2-.2-.3-.4-.4-.6-.1-.1-.1-.2-.1-.3-.1-.4-.2-.7-.3-1.1-.1-.3-.1-.7-.1-1v-1.1c0-.2,0-.5.1-.7,0-.4.1-.8.1-1.1,0-.2.1-.4.2-.6q0-.2,0-.1c.1-.3.2-.6.3-1,.1-.3.2-.6.2-.9.1-.2.1-.4.2-.5.1-.2.1-.4.2-.6,0-.1,0-.2.1-.3,0-.2,0-.4.1-.6.1-.3.1-.6.2-1,.1-.5.2-1,.4-1.5s.2-1,.4-1.5c0-.1.1-.3.1-.4.1-.3.2-.6.2-.9.1-.2.1-.4.2-.6.1-.4.2-.8.4-1.2.1-.3.2-.6.3-.9.1-.2.2-.3.3-.5s.2-.3.2-.4.1-.1.2-.2c.1-.2.2-.5.4-.7,0-.1.1-.2.2-.2.1-.1.2-.1.3-.1h.4c.3-.1.6,0,.8,0h.5c.1,0,.1.1.2.1q.1.1.2.1c.1,0,.3,0,.5.1q.1,0,.1.1c.2,0,.3.1.5.2.1.1.3.2.4.3s.2.2.2.3q.1.1.1.2v.5q0,.1-.1.2c-.1.2-.1.3-.1.5v.2c-.1.1-.2.2-.3.4q-.1.1-.1,0c0-.2,0,.1,0,.1v.9c0,.1-.1.3-.1.4v.2c-.7-.2-.7,0-.7.1s0,.2-.1.3v.2l-.1.1h0c0,.1-.1.2-.1.3s-.1.2-.2.3c0,.1,0,.2-.1.3-.1.1,0,.1,0,.1,0,.1-.1.2-.1.2h0c0,.2-.1.4-.1.6,0,.1,0,.2-.1.3,0,0,0,.1-.1.2v.3c0,.2-.1.5-.2.7h0c0,.1,0,.2-.1.3,0,.1-.1.3-.1.4s0,.2-.1.3-.1.2-.1.4h0v.3c0,.2-.1.4-.1.5v.1c-.1.1-.1.2-.2.2,0,.1,0,.2-.1.3,0,.1,0,.2,0,.2,0,.1-.1.3-.1.5h0c0,.1-.1.2-.1.3h0c-.1,0-.1.1-.1.2s-.1.2-.1.3c-.1,0-.1.1-.1.2s0,.1-.1.2c0,.1-.2.2-.2.4l-.1.1c-.1,0-.1.1-.1.1,0,0,0,.1-.1.1-.1.1,0,0,0,.1h0c-.1,0,0,.1,0,.1,0,.1-.1.3,0,.4-.1.1,0,.2-.1.3v.1c-.1.1-.2.2-.2.3v.1c-.1.1-.1.3,0,.4q0,.1-.1.2v.1c0,.3,0,.6-.1.8v.9c0,.1,0,.2,0,.1.1.1,0,.3.1.4,0,.1-.1.3,0,.4v.7c.1.2.1.4.3.6.1.1.3.2.4.3.1,0,.1.1.2.1s.2,0,.3.1c.1,0,.1.1.2.1h0q-.1,0-.1-.1h-.4v.1c.1,0,.1.1.1.2h.1c.3.1.6.1.9.2.2,0,.5,0,.8.1h.7c.1-.1.2-.1.3-.2.2-.2.4-.4.6-.6,0,0,.1-.1.2-.1s.1-.1.2-.2l.1-.1c.2,0,.3-.2.4-.3.2-.2.4-.6.6-.9,0-.1.1-.1.2-.2.1-.1.2-.2.2-.3.1-.2.2-.4.3-.6.1-.1.1-.2.2-.4,0-.1.1-.2.1-.4v-.1c.1-.2.2-.3.4-.5.1-.1.2-.3.2-.4s.1-.1.1-.2c.1-.3.2-.6.4-.9h0c.1-.1.1-.2.1-.3s.1-.2.2-.2v-.5h-.1c.1-.2.1-.4.2-.5l.1-.1c0-.1.1-.2,0-.3,0,0,0-.1-.1-.1,0,0-.1,0,0,0-.1,0-.1.1-.2.2s-.1.2-.1.2h0c-.1.1-.2.1-.2.2h0q0,.1-.1.2s0,.1-.1,0c0,0-.1,0-.1-.1s0-.1.1-.2c0-.1.1-.2.1-.3s.1-.2.1-.3v-.1c0-.1.1-.2.1-.2v-.1s-.1,0-.1.1c-.1,0-.1-.1,0-.1,0-.1.1-.2.1-.3v-.1h0c0,.1-.1.2-.1.2,0,.1-.1.2-.2.3,0-.1,0-.2.1-.3.1-.2.2-.4.3-.5.1-.2.1-.4.2-.7.1-.2.2-.5.2-.7,0-.1.1-.3.1-.4.1-.2.1-.4.2-.6.1-.4.2-.7.4-1,0-.1.1-.2.1-.4.1-.2.1-.5.2-.7q0-.1.1-.2v-.1h0c.1-.3.2-.5.2-.8,0-.1,0-.2.1-.3.1-.2.2-.5.2-.7.1-.3.1-.6.1-.9v-.4c0-.2,0-.4.1-.6,0-.3.1-.6.1-.9.1-.4.2-.8.3-1.2.1-.3.2-.6.2-.9.1-.2.1-.4.2-.6.1-.3.2-.5.3-.8,0-.1,0-.2.1-.3v-.1c0-.1.1-.2.1-.4,0-.1.1-.1.1-.1.1-.2.2-.2.3-.4v-.1h.4c.1,0,.1.1.2.1,0,0,.1,0,.1.1v.1c.1,0,.1-.1.1-.1q.1.1.2.2v.1s0,.1.1.1.2.1.2.2h.2v.4h.1v.1q0,.1.1.1t-.1.2c.1.1,0,.1,0,.2s0,.1.1.2c.1.1,0-.1.1-.1.1.1,0,.1,0,.1v.4c.1.1,0,.3.1.4.1,0,.2-.1.3-.1,0,0,.1,0,0,.1,0,0,0,.1.1.1s.1.1,0,.2-.1.2,0,.3c0,0,.1,0,.1.1,0-.1,0-.3.1-.4.1.1-.1.2,0,.2q0,.1.1.2s-.1,0-.1.1v.3h.1v.1q0,.1.1.1,0-.1.1-.2c.1,0,.1.1.1.1q.1-.1.1-.2v-.1s0-.1.1-.1c-.1.3-.2.7-.2,1q.1,0,.2-.1c-.3-.1-.3,0-.3,0h0Zm-15.5,21.9c-.1.1-.3.1-.4.1,0,0-.1,0-.1.1s-.1.1-.1.2c.1,0,.3,0,.4-.1.1-.1.3-.2.2-.3h0Zm1.9-12.1h0Zm.4-1.4h.1-.1c.1,0,0,0,0,0Zm2,12.7q-.1,0-.1.1s0,0,.1-.1Zm3.9-2.4h-.1.1Zm.6-8.5c-.1,0-.2.1-.2.3.2-.1.1-.2.2-.3Zm.3,1.3h0l-.2.2.1.1c.1-.1.1-.2.1-.3q0,.1,0,0h0Zm1.3,6h0Zm1.2-1.4h0c-.1,0-.2-.1-.2,0v.1s0,.1.1,0c.1,0,.1-.1.1-.1h0Zm1-2s0-.1-.1-.1c0,.1.1.2.1.1Z"/>
    </g>
    <path d="m34.7,32.39h0q0-.1.1-.2c.1,0,.1.1.1.1q-.1,0-.2.1ZM58.1.49s0,.1-.1.2c0,.1-.1.2-.2.2v.2c0,.1-.1.1-.1.2,0,0-.1.1-.1.2v.1c0,.1,0,.2-.1.2h-.1c0,.1,0,.2.1.4q-.1.1-.1.2c0,.1.1.1.1.2q.1,0,0,.1c0,.1,0,0-.1,0l-.1.1h.1c0,.2-.1.4-.2.6q-.1.1-.1,0v.5q0,.1.1.1h.3l-.1.1h-.1v-.1h-.1v.1c-.1.1,0,.2,0,.2.1.1,0,.1,0,.1.1-.2.2-.2.4-.2h0c0,.1-.1.1-.1.2.1,0,0,.1,0,.1v1c0,.1-.1.3-.2.3,0,0,.1,0,.2.1v.2h0c-.1,0-.1.1-.1.1v.2c0,.1,0,.3-.1.4,0,.1-.1.2-.1.3,0,0,0,.1.1.1s.2.1.1.2v.3c-.1.2,0,.3,0,.4,0,0,0,.1.1.1v.1c-.1.1-.1.2-.1.4v.2c-.4.7-.4.8-.4.9s.1.1.2.1h0s.1,0,0,.1h0v.2c0,.1.1.2.1.4v1.2h0v.3c0,.1,0,.3-.1.4-.1.1,0,.3-.1.4v.2c-.1.2-.2.4-.2.5v.1q-.1.1,0,.2h0c0,.1,0,.2-.1.4,0,0,0,.1-.1.1v.1c.1.1,0,.2,0,.4,0,0-.1.1,0,.1v.3c0,.1.1.1,0,.2,0,.2,0,.4.1.5s.1.2.1.3v.1c0,.1,0,.2-.1.2s0,.1,0,.2v.1q-.1.1,0,.1t.1.3v.3c0,.1-.1.1-.1.2v.2h0c0,.1,0,.2-.1.4v.3s-.1.1,0,.1c0,0,.1.1.2,0h.1v.6s.1.1,0,.2c0,0,0,.1-.1.1s-.1,0-.1.1,0,.1.1.2,0,.1,0,.2v.1l-.1.1c-.1.1-.1.2,0,.2v.3h.1c-.1.1-.1.2,0,.4v.1s0-.1-.1-.1v-.2c-.1,0-.2,0-.2-.1-.1,0-.1.1-.1.2s0,.1-.1.2h0v.2c-.4.3-.4.4-.4.6,0,0,0,.1-.1.1-.1.1-.1.2-.1.4h-.1v.2h0s.1,0,.1.1,0,.1-.1.2c0,0-.1,0-.1-.1q0,.1-.1.2v.1c-.1,0-.1.1,0,.2v.1h-.1s-.1,0-.1.1v.1h.2v.1h-.1c-.1,0,0,.1,0,.2h0s-.1.1,0,.1c0,0,0,.1.1.1q0,.1-.1.1h-.1v.2c-.1,0-.1.1-.1.1,0,.1-.2.2-.3.4l-.1-.1c-.1.1,0,.2,0,.3s-.1.1-.1,0c-.1,0-.1.1-.1.2s-.1.2-.2.4h-.1v.1h-.1c-.1,0-.3.1-.4.1h-.2s-.1.1-.2.1h-.1l-.1-.1h-.1v.1c0,.1,0,0,0,0h0v.1s-.1.1-.2,0c0,0-.2,0-.2.1s-.1.1-.2.1v-.2h-.5v.1c0,.1,0,0-.1,0v-.1h0v-.1s0-.1-.1,0c-.1,0,0,0,0,0h-.1v.1c0,.1-.1.1-.1.1v.1s.1,0,.2-.1v.2c-.1,0-.1-.1-.2-.1v.1s0,.1-.1,0v-.3h-.2q0,.1.1.1h0l-.1-.1-.1-.1c-.1,0-.2,0-.2.1s-.1.1-.2,0c0,0-.1.1-.2.1,0,0,0,.1.1.1l.1.1v.2h-.1v-.2c-.1,0,0,0,0,0h0v.2c0,.1.1.1,0,.2-.1-.1-.1-.2-.2-.3h-.2q.1.1.1.2s0,.1-.1,0h-.2v-.1s0-.1-.1-.1q0,.1-.1.1h0l-.1.1v-.2c-.1,0,0-.1,0-.1h-.1q0,.1.1.2v.1h-.2c0,.1-.1.1-.2.1-.1-.2-.2-.4-.4-.6.1-.1.2-.1.1-.2h-.1v-.1c-.1-.1-.1.1-.2.1v-.1q.1-.1.3-.2h-.2s-.1,0-.1-.1v-.3h.2v-.1c-.1,0-.2-.1-.3-.1v.2-.1q0-.1-.1-.2v-.3c.1,0,.1-.1.1-.1h0c0-.1-.1-.2-.1-.2,0,0-.1.1,0,.1h-.2v-.1c.1-.1,0-.2-.1-.2v-.1c-.1-.2-.2-.5-.2-.7,0,0,0-.1-.1-.2,0-.1,0-.3-.1-.5v-.5.1h0v-.3c0-.2,0-.3-.1-.5v-.1c0-.2-.1-.3-.1-.4v-.4c0-.2-.1-.3-.1-.5l-.1-.1c0-.2-.1-.3-.1-.5h0c-.1-.2-.1-.4-.2-.6,0-.2-.1-.3-.1-.5v-.1c-.1-.1-.1-.3-.1-.4v-.4c-.1-.2-.1-.3-.2-.5v-.1c0-.1,0-.2-.1-.3v-.3h-.1q-.1-.1-.1-.2v-.1h-.1l-.1.1c0,.1-.1.2-.1.3s0,.1-.1.2c0,.1,0,.2-.1.4,0,0-.1.1-.1.2,0,0,0,.1-.1.1,0,.1-.1.2-.1.4v.4q.1.1,0,.2c-.1.1-.1.3-.1.4s0,.1-.1.2c0,.1-.1.2-.2.4v1c-.1.2-.2.4-.2.6v.3c0,.1-1.1,5.2-1.2,5.3s-.1.1-.1.2v.1c.1.1,0,.2,0,.2v.5c0,.1,0,.2-.1.2h0c0,.1-.1.2-.1.4,0,.1,0,.2-.1.4-.1.1,0,.2,0,.3v.6c0,.1-.1.2-.2.3,0,0-.1.1-.2.1v.1c0,.1-.1.2-.2.4-.1.1-.1.2-.2.2-.1.1-.2.2-.4.3h0c-.1.2-.3.2-.5.3q-.1.1-.2.2h0c-.1,0-.3.1-.5.2-.2.1-2.6.1-2.6.1-.1,0-.1.1-.2.1s0,0-.1,0-.2.1-.3.2c-.1,0-.1.1-.2.1l-.1.1h-.1q-.1,0-.1.1h-.1c0-.1-.1.1,0,.2s0,.1,0,.1h-.1v-.1.1s-.1.1,0,.1h.2q0,.1-.1.1c-.1.1-.2.1-.4.2-.1.1-.3,0-.4,0h-.3v-.1h-.5c-.1,0-.3.1-.4,0,0,0-.2-.1-.3-.1,0,0,.1,0,.1-.1s-.1-.1-.2-.1-.2-.1-.2-.2h0s-.1-.1-.2-.1c.2,0,.3,0,.4-.1q0-.1-.1-.1v.1h-.2v-.1s0,.1-.1,0l.1-.1h0v-.1l-.1-.1s0-.1.1,0c0,.1.1.1.2.1h.1-.2c0,.1.1,0,.2,0h.1q0-.1-.1-.2s0-.1.1-.1h.1v.1c.1,0,.1-.1,0-.1s-.1-.1-.1-.2c.1,0,.2,0,.2-.1h-.2l-.1-.1c0-.1.1-.1.1-.2v-.1h.1c.1.1.1,0,.3,0q0-.1.1-.1s0-.1.1-.1c0,0,.1,0,.2.1l.1-.1h-.2v-.1h-.3v-.2c.1-.1.1-.2.1-.3v-.1c.1.1,0,.2.1.2h.1c-.1,0-.1-.1-.2-.2h.1-.1v-.2c0-.1,0-.3.1-.4v-.4c0-.1,0-.2.1-.3h0c0-.2.1-.5.1-.7.1,0,.1-.1.2-.1h-.2v-.1c.1,0,0-.1,0-.2v-.4c.1,0,.1-.1.1-.1v-.1c-.1-.1,0-.2,0-.3s1.3-5.3,1.3-5.4,0-.2.1-.3c0,.1.1.1.1,0h.1c0-.1-.1,0-.1,0v-.4c.1,0,.1-.1.1-.1-.1-.1,0-.2,0-.2h0v-.2s.1-.1.1-.2.1-.2.1-.3h.1v-.3h.2-.1q-.1,0-.2-.1c.1-.1.1-.2.2-.4q.1-.1.1.1c0-.1,0-.2.1-.2.1-.1,0,0-.1-.1,0-.1,0-.2.2-.3v-.3q0-.1.1-.2.1,0,.1-.1l-.1.1c0-.1,0-.2.1-.4h.2c-.1-.1-.2-.1,0-.2v-.1l.1.1c0-.1.1-.1.2-.1,0,0,.1,0,.1-.1s0-.1-.1-.1v-.1h-.1v-.1c.1,0,.2,0,.2.1,0,0,.1.1,0,.1q.2,0,.2.1v.1c.1,0,.2,0,.2-.1,0,0,0-.1-.1-.1h0c.1-.1,0-.1,0-.1,0,0,.1-.1.2-.1h.1v.1s.1,0,.1.1c0-.1.1-.1.2-.1s.2.1.3,0h0c.1,0,.2,0,.4-.1h0v-.1h.1s0,.1.1.1v-.1h-.1v-.1h.1s0-.1.1-.1h.1c0,.1.1.1.2,0-.2-.1-.1-.1-.1-.2h-.1s-.1,0-.1.1v.1c-.1,0-.2,0-.2-.1,0,.1-.1.1-.2.1,0-.1.1-.1,0-.2h-.4c.1-.1.2,0,.2,0h.3c0-.1,0-.2-.1-.2h-.1c0-.1.2-.1.1-.1.1,0,.1-.1,0-.2h0q0-.1-.1-.1v.1h-.2q0-.1.1-.1v-.2c.1,0,.2,0,.2-.1h0c0-.1.1-.1.2-.1h-.1v.2h0s-.1-.1-.2-.1v-.1q-.1,0-.1.1v.3s-.1,0-.1.1c0,0-.1,0-.1.1h0q0-.1.1-.2c.1,0,0,0-.1-.1-.2,0,0,.1-.1.1s0-.1,0-.2c0,0-.1-.1,0-.1s.1-.1.3-.1v-.1h.3-.2v-.3h.2q0-.1-.1-.2h.1c.1,0,0,0,0-.1h-.1c.1-.1.1-.2.2-.3h.1s0,.1.1.1l.1-.1s0-.1-.1-.1h.1-.1c0-.1.1-.2.2-.2v.1c.1,0,0-.1.2-.1v.1-.3h-.1q0-.1.1-.2c0-.1.1-.2.3-.3,0,0,0-.1.1-.1,0,0,.1-.1.1,0,0,0,.1,0,.1-.1v.2h.1c0-.1.1-.1.1-.2l-.1-.1v-.1h-.2l.1-.1c0-.1.1,0,.1-.1v-.1s0-.1.1-.1c.1-.1.2-.1.3-.2q0-.1.1-.2.1-.1.1-.2h0c0-.1.1-.1.1-.2,0,0,.1,0,.1-.1,0,0,.1,0,.1-.1s.1-.1.2-.1v-.2c0-.1.1-.1.2-.2h.2v-.3q.1,0,.1.1c-.1,0-.1.1,0,.1,0,0,0-.2.1-.2h.1s0-.1.1-.1h.1v-.1s0-.1-.1-.2h0l.1-.1v-.3c.1-.1.1-.2.1-.3s.1-.1.1-.2l.1-.1-.3-.6c.1,0,.1-.1.2-.1l.1-.1c.1,0,.1-.1.2-.1.1-.1.2-.1.4-.1h.1c0,.1.1,0,.2.1v.1-.1h.4s0,.1.1,0c0,0,.1,0,.2.1l.1.1c.1,0,.1.1.2.2v.1h.1c.1.1.2.2.3.3s.4.4.4.5.1.2.2.3c0,0,.1,0,.1.1v.5c0,.1,0,.2.1.3v.1c.1.1.1.2.2.4v.8c0,.2,0,.4.1.7.1.2.1.4.1.6,0,.1.1.2.1.3v.2c.1.1.1.2.2.4h0v.4c0,.2.1.2.1.3,0,0,0,.1.1.1,0,.1,0,.2.1.3,0,.2,0,.4.1.6,0,.1,0,.2.1.4,0,0,0,.1.1.1v.1c0,.1,0,.2.1.2q.1.1.1.2s0,.1.1.2v.7s0,.1.1.1c0,0,0,.1.1.1,0,.1.1.1.1.2v.4c.1.1,0,.1.1.1v.4s0,.1.1.1v.2s.1.1.1.2v.1c-.1.2-.1.3-.1.5v1h0v.3h0s0,.1.1.1h.1l.1-.1v-.1s0-.1.1-.1v-.3c0-.2.1-.4.1-.6v-.1c.1,0,0-.1,0-.2v-.2c0-.2,0-.4.1-.5v-.9c0-.2,0-.4.1-.5v-1.6q0-.1.1-.2v-.7c0-.2,0-.4.1-.6v-.2h0c0-.1.1-.2.1-.3v-.8c0-.1,0-.2.1-.3,0-.1.1-.2.1-.3s0-.2.1-.3v-.2h0c0-.1,0-.2.1-.3v-.7q0-.1-.1-.1v-.2c.1,0,0-.1.1-.1v-.2c.5-1.5,1-3.1,1.5-4.6v-.1q.1,0,.1-.1s0-.1.1-.1v-.6s0-.1-.1-.1q.1-.1.1-.2c0-.1.1-.3.1-.4.1-.3.2-.6.3-.9q0-.1.2-.1h.2c0-.1.1-.1.1-.2s.1-.1.2-.2h0c.1-.1.1-.3.2-.4q0-.1.1-.1,0-.1.1-.2h0v-.2c.1-.1.2-.3.3-.4q0-.1,0,0c2.5-.2,2.5-.4,2.6-.4.1-.3.3-.5.4-.7h.2-.1c0-.1.1-.2.2-.3q0-.1.1-.1,0-.1.1-.1l.1-.1s0-.1.1-.1q0-.1,0,0h0Zm-23.3,32.5q0,.2-.2.2h.1c.1-.1.1-.2.1-.2h0Zm.2-.3q-.1,0-.1.1c0-.1.1-.1.1-.1Zm.2-.4q-.1,0-.1-.1.1,0,.1.1c.2,0,0,0,0,0h0Zm.3.8h-.2l-.1.1h.2q.1,0,.2.1c-.1-.1-.1-.2-.1-.2Zm-.1-.7h0Zm0,.2s.1,0,0,0h0c.1-.1,0-.1,0,0Zm.3.2h0c-.1-.1-.2-.1-.3,0h.3Zm-.2-1.2h0c-.1,0-.1-.1,0-.1s.1,0,0,.1h0Zm.1-.2h0c-.1,0,0-.1,0,0,.1-.1,0-.1,0,0h0Zm.5,1h0c-.1,0-.2-.1-.3-.1q0-.1-.1-.2h-.2c.2.1.2.2,0,.3h.1q.3.1.5,0,0,.1,0,0h0Zm-.4-.7s0,.1,0,0c.1,0,.1.1.2.1-.1,0-.1-.1-.2-.1h0Zm.2,1.2s-.1,0,0,0q-.1,0,0,0Zm0-1.9h0c-.1,0,0,.1,0,.1v-.1Zm.2,1.1h-.1v.1l.1-.1Zm.1.3c.1,0,.1-.1.2-.1,0,.1-.1.1,0,.2h.2v-.1h.1q0-.1-.1-.1h0c0-.1-.1-.1-.1-.1,0,0,0-.1-.1-.1v.2h.1c-.2,0-.4,0-.3.1h0Zm0-.6h0c.1,0,.2,0,.2-.1h-.1c-.1,0-.1.1-.1.1h0Zm0-4.3v.1-.1Zm.5,5.4h-.5v.1-.1h.5Zm-.4.3h0q0,.1,0,0Zm0-1.3h0Zm.3.8c0-.1,0-.2-.1-.2h-.2.1c0,.1.1.2.2.2-.1.1,0,.1,0,0q0,.1,0,0h0Zm-.3-1.3c.1,0,.2,0,0,0q.1-.1,0,0Zm.2-3.2h.1c0,.1,0,0-.1,0h0Zm0,2.6h0Zm0,2.3h0q.1,0,0,0Zm0-4.9h0s.1-.1,0-.1v.1Zm.7,4.7s0-.1,0,0c-.1-.1-.1-.2-.1-.3,0,0-.1,0,0,0q0,.1-.1.2h0v.1c0,.1.1.1.1.2,0,0,.1,0,.1-.1v-.2s-.1.1,0,.1h0Zm-.4-3.7q.2,0,.2-.1s-.1,0-.2.1Zm.2,3s-.1.1-.1.2q.1-.1.2,0c0-.1-.1-.1-.1-.2Zm.1-.6s.1,0,0,0q0-.1,0,0h0c-.1,0-.2,0-.1,0h.1c.1.1,0,.1,0,0h0Zm0-2.9h0c.1.1.1,0,0,0Zm.1,4.5h0s0,.1,0,0h0c.1,0,0,0,0,0Zm0-.2h0Zm.4-1.6h-.3.1c0,.1.1,0,.2,0Zm-.2,1.4h-.2c.1,0,.1.1.2,0h0Zm.8-11.7h0Zm0,10.1h0Zm0-11c.1,0,.1-.1,0-.1v.1Zm.1,7.1h0c-.1,0-.1.1,0,0,0,.1,0,0,0,0h0Zm.2-7.7h0Zm0,.6v-.1h0v.1Zm.1.3h0v.2h.1c0-.1-.1-.1-.1-.2Zm.3-1.8h0q-.1,0,0,0h0c-.1.1,0,0,0,0h0Zm-.1.4h0q.1,0,0,0Zm.1-.7h0Zm.3.2s-.2,0-.2-.1c.1,0,.1-.1.1-.1-.1,0-.1.1-.1.2v.1s.1,0,.2-.1h0Zm-.2,2.8h0Zm.1,10s-.1,0,0,0v.1-.1Zm.1-12.5h.1s.1,0,0-.1c0,.1-.1,0-.1.1Zm0,.6v-.1.1h0Zm0-2.3s.1,0,0,0c.1,0,.2,0,.2.1q-.1,0-.2-.1h0Zm.1.6h.2q0-.1.1-.1h0s.1-.1,0-.1v.1c-.1-.1-.2,0-.2,0q-.1,0-.1.1Zm0,2.7s0-.1,0,0q0-.1,0,0h0Zm.1-2h0c-.1,0-.1.1,0,0h0Zm.1.8s-.1,0,0,0q-.1,0,0,0-.1.1,0,0h0Zm.1.2h-.2l.1.1c.1,0,.1-.1.1-.1Zm-.2-.5h0q.1,0,0,0Zm.2.2v.1-.1Zm.1-1.2h0q-.1,0,0,0Zm0-1.8h0v-.1h0q.1,0,0,.1h0Zm.1,1.3h0c-.1,0,0,0,0,0h0Zm0,2.6h0c-.1,0,0,0,0,0h0Zm.1,1h0c-.1.1,0,.1,0,0q0,.1,0,0Zm0,.5h0c-.1,0,0,0,0,0Zm0-4.9q0-.1.1-.1v.1h-.1Zm.1-1.4h0c.1-.1,0-.1,0,0,0-.2.1-.2.2-.3,0,0,.1,0,.1.1,0-.1.1-.1.2-.1q0,.1-.1.1c-.1.1,0,.1-.2,0,0,0-.1.1,0,.1v.2s-.1,0-.1.1c-.2-.1-.1-.1-.1-.2h0Zm.1.4h0v-.1c.1,0,0,.1,0,.1Zm-.1,1h0c.1,0,.1.1,0,0q0,.1,0,0h0Zm.1-.7s-.1,0,0,0q-.1-.1,0,0Zm.1,1.8h.1v-.2h-.1c-.1,0-.2,0-.1.1,0,0,.1,0,.1.1h0Zm-.1-1.3h0c0-.1.1,0,0,0h0Zm.1-.4h.1c.1,0,0,0-.1,0h0Zm.1,1.9h0q.1,0,0,0Zm.1-2.2q0,.1,0,0c.1.2,0,.2,0,0q-.1.1,0,0h0Zm0,.6h0s0,.1,0,0h0Zm.1.7q-.1,0,0,0-.1.1,0,.1c-.1-.1,0-.1,0-.1h0Zm.1-.7q.1.1,0,.2c-.1-.1,0-.2,0-.2Zm.2,11.9s-.1,0,0,0q0-.1-.1-.1h-.1s0,.1-.1.1c0,.1,0,.2.1.2s.1-.1.2-.2c0,.1,0,0,0,0Zm-.2-11.4h.2c-.1.1-.2.1-.2,0Zm.2-1q-.1,0-.1-.2s.2.1.3.1h0l-.2.1c.1,0,0,0,0,0h0Zm.2-.9v-.2c-.1,0-.1.1-.2.1,0,.1.1.1.2.1h0Zm0,1.8h-.2v-.1s0-.1.1-.1q0,.2.1.2h0Zm.2-2.4c-.1,0-.2-.1-.4-.2v.1c.1.1.3.1.3.2q-.1,0,0,.1c0,.1,0,0,0-.1l.1-.1c0,.1,0,0,0,0h0Zm-.2,3.2q-.1,0-.1.1c.1.1.1,0,.1-.1Zm.2-1.7h-.1.1Zm0-1.2v.2h0c.1,0,.1-.1,0-.2h0Zm.1,5s0-.1-.1-.1c-.2,0,0,.1.1.1Zm0-4.3h.1s0,0-.1,0Zm.3,1.4h-.1v.2c.1,0,.1-.1.1-.2Zm0-.6s-.1,0,0,0q-.1,0,0,0h0Zm.1-2.5h0c-.1.1,0,.1,0,.2v-.2Zm.2-.7h0Zm0,3.8h.2-.2q.1-.1,0,0h0Zm.1,12.5v-.1.1Zm0-14.7h.1s0-.1-.1-.1v.1h0Zm.2,1.4h-.2.2Zm0,.9h-.2v.1c.1,0,.2,0,.2-.1h0Zm.3-.1h-.1s-.1,0-.1.1h.2s0-.1,0-.1h0Zm-.2-.7h.1v-.1c-.1,0-.1.1-.1.1Zm.7.3c-.1,0-.2,0,0,0-.1.1,0,.1,0,0Zm0-4.6h0Zm.5-.8h0c-.1,0-.1.1-.1.1v.2h.1v-.3h0Zm.2,0v-.2h-.1c0,.1,0,.2.1.2h0Zm.1.1c-.1,0-.1.1,0,.1v-.1Zm.1-.3l.1-.1q0-.1-.1-.2h0v.3c-.1-.1,0,0,0,0h0Zm.1,2.7h0q-.1,0,0,0c0,.1,0,0,0,0h0Zm.2,2.6c-.1,0-.2,0-.3.1.1,0,.2.1.4.1.1-.1-.1-.1-.1-.2Zm0,.4h0Zm.3-5.6h0Zm.2,5.3h-.1c-.1,0,0,0,.1,0Zm-.1,1.5h0Zm.2-.4q0,.1-.1.2v-.4q.2.1.1.2Zm.2-8.5h0c-.1,0,0,0,0,0Zm.5.3c0-.1-.1-.1-.1,0h.1Zm-.1-.5v.1h0q.1-.1,0-.1h0Zm.5.3h0c-.1-.1-.1,0-.1,0t.1,0h0Zm.1.2h0Zm.2-.3v-.1s-.1,0-.1.1t.1,0Zm0,.1s-.1,0,0,0h0Zm.4.1c-.1-.1-.1,0-.2,0h.2Zm.2,13.6l.1.1q0-.1-.1-.1Zm.2.8h0Zm.5.9c.1,0,.1-.1,0-.1v.1Zm.1.2c-.1,0-.1.1-.1.2q.1-.1.1-.2Zm.1.8s0,.1,0,0h0c-.1.1-.1,0-.1-.1,0,0,.1.1.1.1h0Zm.1-.8h0q0,.1,0,0h0Zm.3.6h0c-.1,0,0,.1,0,.1h0v-.1h0Zm0,.4v.2-.2Zm.1,1.1s-.1,0,0,0q-.1-.1,0,0Zm.1-1.1s-.1-.1-.1,0h.1Zm-.1.5h0c0,.1,0,0,0,0Zm.2-.2q-.1,0,0,0l-.1.1h.1v-.1h0Zm0,2.7v.1c-.1,0,0-.1,0-.1Zm.2-.7c.1,0,.1.1.1.1,0,0-.1,0-.1-.1-.1-.1-.1.1-.2,0,.1,0,.3-.1.5-.1v.2c-.1-.1-.2-.1-.3-.1h0Zm0-1.3v-.3s-.1.1,0,.1v.2q-.1,0,0,0h0Zm0-.4s0-.1,0,0c0,0-.1,0,0,0h0Zm0,1.5c-.1,0-.1-.1,0-.1v.1Zm.1-1.8h0c-.1.1-.1,0,0,0h0Zm.3.5l-.1-.1.1.1h-.2c-.1,0,.1,0,.2,0h0Zm0,2.4v.1c-.1,0-.1-.1,0-.1Zm.1-.5h-.1q0-.1.1-.3c.1.2,0,.3,0,.3h0Zm.6-.6c-.1.1,0,.1,0,.2,0,0,0,.1-.1.1-.1.1,0,0-.1-.1,0,0-.1.1-.1,0,0,.1.1.2,0,.2h-.2v-.1c0-.1,0-.2.1-.3h0l-.1.1c-.1.1,0,0,0,0v-.2l.1-.1h.1q0,.1.1.2v.1h.1q0-.1.1-.2h0s0,.1,0,.1h0Zm-.4-.7h-.1c0,.1.1.1.1.1v-.1h0Zm0,0h-.1.1Zm0-1.1c0,.1-.1.1,0,.2h0c0-.1.1-.2,0-.2Zm0,1.5h0Zm.3-.6h0c-.1-.1-.1,0-.1,0v.1h.1c-.1,0,0,0,0-.1h0Zm-.2.3h0Zm.2,1.5h0Zm.3-1.9l-.1-.1h-.1v.1c0,.1.1.1.1.2,0,0,.1,0,.1-.1,0,0,.1,0,.1.1q0-.2-.1-.2Zm-.2,2v.1h-.1c0-.1.1-.1.1-.1h0Zm-.1-2.9c.1,0,.2-.1.2-.2,0,0-.1.1-.2.2Zm0,.3h0Zm.4,1.5h0Zm.3-1.2c-.1,0-.2,0-.3-.1v.1h.3Zm-.3,1.6s.1,0,0,0h0c.1.1,0,0,0,0h0Zm.1-1.4h0c.1.2.1.1,0,0Zm.1,1.2c-.1,0-.1-.1-.1-.2.1,0,.2.1.1.2Zm.2-.3h0q-.1,0,0,0c0-.1,0,0,0,0h0Zm.2-.3c-.1,0,0,.1-.2.1l-.1-.1c.1-.1.2-.1.3,0Zm.1,1.1c-.1,0-.1-.1,0-.2,0,.1-.1.1,0,.2Zm0-3.8c0-.1-.1-.1-.1-.1-.1.1,0,.1.1.1Zm-.1,2.6v-.2c.1.1.1.2,0,.2Zm.1.3s.1,0,0,0h0v.1-.1h0Zm.4.8h-.2q0,.1-.1,0v-.2h.3c0-.1,0-.2.2-.1-.1.1-.2.2-.2.3h0Zm-.1-.6v.1h-.1s0-.1.1-.1h0Zm0-.3s-.1,0-.1-.1c0,0,0-.1,0,0,.1,0,.2.1.1.1Zm.2-1.8h0c0-.1-.1-.1-.1-.2q-.1,0-.1.1v.1c.1,0,.2.1.2,0q0,.1,0,0h0Zm-.1,2.2h0v.1h0c0,.1-.1,0,0-.1-.1.1,0,.1,0,0h0Zm.4-4.2h0q.1-.1.2-.1l-.1-.1v-.1h.1c-.1,0-.2-.1-.2-.1h-.1c0-.1-.2,0-.2-.1h-.1.1c0,.1.1.2.1.2h.3v.1c-.2.1-.1.1-.1.2h0Zm-.4,2.9h0Zm.1.7q0,.1.1.1h-.2l.1-.1h0Zm-.1.4s.1.1,0,0q0,.1,0,0Zm0-5.1v.1s.1,0,.1-.1v.1c0-.1.1-.1.2-.2v-.1.2q-.2.1-.1.4h0q0-.1.1-.2h.3s0-.1-.1-.1h.1c0-.1-.1-.1-.1,0-.1.1-.1,0-.2,0v-.4q-.1,0-.1.1c-.1,0,0,0-.1.1-.1,0,0-.1,0-.1q0,.1-.1.2h0s.1,0,0,0h0Zm.2-.2c0-.1-.1-.1-.2-.2,0,.1.1.2.2.2Zm-.1,1.2h0l.1-.1-.1.1h0Zm0,.1q0,.1.1.1s0-.1-.1-.1Zm.1-2h0c.1,0,0,0,0,0h0Zm.2,6.6h0c0,.1-.1,0,0,0h-.2v-.1c.1.1.2.1.2.1h0Zm-.1-2.1v-.1c-.1.1,0,.1,0,.1Zm0-4c0,.1.1.1.1.1.1-.1,0-.2-.1-.1.1-.1,0-.1,0,0Zm.1,5.2h0c-.1,0,0-.1,0-.1.1,0,.1.1,0,.1Zm.1-1.7s-.1-.1-.1,0v.1l.1-.1h0Zm.3-1.9h0q.1-.1.1-.2s0-.1-.1-.1c.1-.1,0-.1,0-.2-.1,0-.1.1-.1.1v.1l-.1.1v.1c0,.1-.1.1-.2.1,0,0,.1,0,.2.1v-.1h.2q-.1,0,0,0s-.1,0,0,0h0Zm-.4.3v-.1.1Zm0,1.1h0s0-.1,0,0h0Zm0,.7h0Zm0,.3v.1s.1,0,0-.1Zm.5,1.9h0q-.1.1-.2.1h-.2c.1-.1.2-.2.2-.2.1,0,0,0,0,0v.2q.1,0,.2-.1h0Zm-.2-3.2h0q.1,0,.2-.1l-.1-.1h0q-.1,0-.1-.1v-.1.2c-.2.1-.1.2,0,.2h0Zm-.2-2.6h0c.1,0,.2-.1,0,0,.1-.1,0-.1,0,0Zm.1,5.7h0s-.1,0,0,0c-.1,0,0,0,0,0h0Zm0-.2h0v.1c-.1,0,0,0,0-.1h0Zm0-.3q0-.1.1-.1s0,.1-.1.1Zm.1-8.6h0Zm0,5.4q0,.1.1.1s0-.1-.1-.1Zm.2,1v.1q.1,0,.1-.1v-.2s-.1.1-.1.2l-.1-.1h0v.2h-.1.1v-.2q0,.1.1.1h0Zm-.1,1.6s-.1-.1,0,0c-.1-.1-.1,0,0,0Zm-.1-3.8h0c0-.1,0,0,0,0Zm.1,4.6h0Zm0-4.6h0s.1,0,0,0h.1v-.1s-.1-.1-.2-.1c.1.1.1.2.1.2h0Zm.2.8q-.1,0,0,0h-.2v.1h.1l.1-.1c-.1.1,0,0,0,0h0Zm-.2,2.7v.1q.1,0,0-.1Zm0,1.2h.2v.1c-.1-.1-.2,0-.2-.1Zm0-8.8v.1s0-.1.1-.1h-.1Zm.2,4.6v-.1h.1q0-.1-.1-.2c0-.1,0-.2-.1-.2v.4c.1,0,.1.1.1.1h0Zm-.1-3.1h0q.2,0,.1-.1s0,0-.1.1Zm.1,4.1h0s.1,0,0,0q0-.1,0,0,0-.1,0,0c0-.1-.1-.1,0,0h0c-.1-.1,0,0,0,0h0Zm.1,2.4h-.2v.1c.1-.1.2-.1.2-.1Zm0-5.6c-.1,0-.1.1-.1.1,0,.1,0,.2.1.3v-.4Zm.1.6h-.1s-.1,0,0,.1q0-.1.1-.1Zm-.2-.9s.1,0,0,0h0c0-.1,0,0,0,0h0Zm0-.9h0q.1.1,0,0h0Zm.1,3.6q0-.1.1-.1c.1,0,.1-.1,0-.1,0-.1,0,0-.1,0,0,.1-.1.1-.2.1v.1h.2Zm0-1c.1-.1.1-.2,0-.3v.3Zm0,.4c.1,0,.1.1.1.1.1-.1,0-.1,0-.2q0,.1-.1.1Zm0,1.4c.1,0,.1.1.1.1,0,0,0-.1.1-.1h0s-.1,0-.2,0h0Zm.2,2.2s-.1,0,0,0h-.2v.1s.1,0,.2-.1c0,.1,0,0,0,0h0Zm-.2.6h0s0,.1,0,0h0Zm0-3.3v-.1.1Zm.1-1.9h0c-.1,0,0,.1,0,0,.1.1.2.1,0,0,.1-.1,0-.1,0-.1v.1Zm0-1h0q.1.1.2.1v-.2h-.1s.1,0,.1.1h-.2c0-.1-.1,0,0,0Zm0-.4h0c.1,0,.1-.1,0,0h0Zm.2.5h-.1q0,.1.1,0Zm.1,3.9c-.1,0,0-.1-.1-.1q0,.1-.1.2c.1,0,.1-.1.2-.1h0Zm-.2-3.2h0s-.1,0,0,0Zm0-1.1h.1q0-.1-.1,0Zm.2,6.4v.1q-.1-.1,0-.1Zm0-5.3v-.1s-.1.1,0,.1Zm0-.3h0Zm0,1.8s.1,0,.2-.1q-.2,0-.2.1Zm.1-2.8h.1v-.1q0,.1-.1.1c0-.1-.1-.1,0,0-.1-.1-.1,0,0,0h0Zm0,3.8q-.1,0,0,0c-.1.1,0,0,0,0Zm.1-3.2c0-.1-.1-.1-.1,0v.1l.1-.1Zm0,3.4l-.1.1s0,.1.1.1v-.2Zm-.1.9h0Zm.2-4h0v-.1s-.1,0-.1-.1c-.1.1,0,.1.1.2h0Zm0-.7v-.1h0s-.1,0,0,.1Zm.1,5.8s0-.1-.1-.1c0,.1-.1.1.1.1Zm0-8q0-.1-.1-.1c-.1,0,0,.1.1.1Zm.2,1.6h0s-.1.1,0,.1v-.1Zm.1-.9v.1h0c.1-.1.2-.1,0-.1h0Zm.2,2.4c0-.1-.1-.1-.2-.1s.1.1.2.1c-.1,0,0,0,0,0h0Zm-.1.4h0s-.1,0,0,0h0Zm.3-2.5h0l-.1-.1c0,.1.1,0,.1.1Zm0-.9v-.1.1h0Zm0,2.3s-.1,0-.1.1h0q.1,0,.1-.1h0Zm0-3.7h0Zm.2,2.5h-.1s0,.1.1.1v-.1Zm.3.4c-.1,0-.1-.1-.1-.1v.2s-.1.1,0,.1c0,0,0-.1.1-.2,0,.1-.1.1,0,0Zm1.5-15.5q-.2,0-.2.1c0,.1,0,.2-.1.2h.1v-.1h0q0-.1.2-.2-.1,0,0,0h0Zm.2-.3c-.1,0-.2-.1-.3-.1,0,.1.1.1.1.2.1,0,.1-.1.2-.1Zm-.3-.3s.1-.1.1-.2c.1.1,0,.2-.1.2Zm.7,17.3h0Zm.2.6h0s-.1,0,0,0h0c-.1-.1,0,0,0,0h0Zm.1.6h0q-.1.1-.1.2v-.5q0-.1.1-.2v.5h0Zm.3-17.8h0c-.2,0-.1.1,0,0q0,.1,0,0h0Zm-.1-.4h0s.1,0,0,0h0Zm0,.3h0Zm.4-1.1h0q.1,0,0,0Z"/>
  </g>
  <g>
    <path d="m47.8,33.89s0,.1,0,0l-.2,4.1q0,.1-.1.1h-2.2q-.1,0-.2-.1l-.9-2h0l-.2,2q0,.1-.1.1h-2.2q-.1,0-.2-.1l-1.5-4.1q0-.1.1-.1h2q.1,0,.2.1l.5,1.4h0l.2-1.4q0-.1.1-.1h1.6q.1,0,.2.1l.6,1.4h0v-1.4q0-.1.1-.1h2c.1,0,.1.1.2.1h0Z" style="fill: url(#linear-gradient);"/>
    <path d="m51.2,37.99q0,.1-.1.1h-2q-.1,0-.1-.1l-.7-4.1q0-.1.1-.1h2q.1,0,.1.1l.7,4.1Z" style="fill: url(#linear-gradient-2);"/>
    <path d="m57.1,35.09q0,.1-.1.1h-1.5q-.1,0-.1.1l.4,2.8q0,.1-.1.1h-2q-.1,0-.1-.1l-.4-2.8q0-.1-.1-.1h-1.6q-.1,0-.1-.1l-.2-1.1q0-.1.1-.1h5.6q.1,0,.1.1l.1,1.1h0Z" style="fill: url(#linear-gradient-3);"/>
    <path d="m63.9,37.99q0,.1-.1.1h-2q-.1,0-.1-.1l-.2-1.3q0-.1-.1-.1h-1.1q-.1,0-.1.1l.2,1.3q0,.1-.1.1h-2q-.1,0-.1-.1l-.7-4.1q0-.1.1-.1h2q.1,0,.1.1l.2,1.3q0,.1.1.1h1.1q.1,0,.1-.1l-.2-1.3q0-.1.1-.1h2q.1,0,.1.1l.7,4.1Z" style="fill: url(#linear-gradient-4);"/>
  </g>
  <path d="m30.3,60.49c0-.1-.8-2.2-1.6-4.2l-3.1-8.4s-1.2-2.6,1.5-3.5c2.5-.8,3.8,2.4,3.8,2.4,0,0,4.4-3.9,4.3-4.1-2.3-3.7-6.5-4.5-10.2-3.4-4.3,1.2-6.5,5-5.3,9.2,0,.1.8,2.2,1.6,4.2l3.1,8.4s1.2,2.6-1.5,3.5c-2.5.8-3.8-2.4-3.8-2.4,0,0-4.4,3.9-4.3,4.1,2.3,3.7,6.5,4.5,10.2,3.4,4.3-1.2,6.6-5,5.3-9.2Z" style="fill: url(#linear-gradient-5);"/>
  <polygon points="40.1 39.69 30.1 69.79 36 69.79 43.1 48.39 44 61.59 40.7 61.59 41.6 58.49 41.3 58.59 33.9 81.79 34.2 81.79 39.2 66.09 44.3 66.09 44.5 69.79 50.4 69.79 48.4 39.69 40.1 39.69" style="fill: url(#linear-gradient-6);"/>
  <polygon points="60.5 39.59 60.5 39.59 60.5 39.59 60.5 39.59 60.5 39.69 60.5 39.69 60.5 39.69 56.4 66.09 56 66.09 60.1 39.69 60.1 39.69 60.1 39.59 60.1 39.59 57.1 39.59 52.3 69.69 59.2 69.69 63.9 39.59 60.5 39.59" style="fill: url(#linear-gradient-7);"/>
</svg>